<?xml version="1.0" encoding="UTF-8" standalone="no"?>
<!DOCTYPE svg PUBLIC "-//W3C//DTD SVG 1.1//EN" "http://www.w3.org/Graphics/SVG/1.1/DTD/svg11.dtd">
<svg width="100%" height="100%" viewBox="0 0 1230 780" version="1.1" xmlns="http://www.w3.org/2000/svg" xmlns:xlink="http://www.w3.org/1999/xlink" xml:space="preserve" xmlns:serif="http://www.serif.com/" style="fill-rule:evenodd;clip-rule:evenodd;stroke-linejoin:round;stroke-miterlimit:1.5;">
    <g transform="matrix(1,0,0,1,-1282.878153,-0)">
        <g id="Retro" transform="matrix(1,0,0,1,1282.878153,0)">
            <rect x="0" y="0" width="1230" height="780" style="fill:none;"/>
            <g id="R_Reel" opacity="0" transform="matrix(2.178022,0,0,2.178022,24.754882,-430.691164)">
                <path d="M383.404,303.061C415.805,303.061 442.11,329.366 442.11,361.768C442.11,394.169 415.805,420.474 383.404,420.474C351.003,420.474 324.697,394.169 324.697,361.768C324.697,329.366 351.003,303.061 383.404,303.061ZM393.923,338.189C387.228,335.202 379.579,335.202 372.884,338.189L376.066,344.053C374.518,344.694 373.061,345.536 371.731,346.556L368.244,340.868C362.31,345.173 358.485,351.797 357.724,359.089L364.394,359.265C364.175,360.926 364.175,362.609 364.394,364.27L357.724,364.447C358.485,371.738 362.31,378.362 368.244,382.667L371.731,376.979C373.061,378 374.518,378.841 376.066,379.482L372.884,385.346C379.579,388.333 387.228,388.333 393.923,385.346L390.741,379.482C392.29,378.841 393.747,378 395.076,376.979L398.564,382.667C404.498,378.362 408.322,371.738 409.083,364.447L402.414,364.27C402.633,362.609 402.633,360.926 402.414,359.265L409.083,359.089C408.322,351.797 404.498,345.173 398.564,340.868L395.076,346.556C393.747,345.536 392.29,344.694 390.741,344.053L393.923,338.189ZM383.404,306.528C380.848,306.528 378.773,310.615 378.773,315.648C378.773,320.682 380.848,324.769 383.404,324.769C385.959,324.769 388.034,320.682 388.034,315.648C388.034,310.615 385.959,306.528 383.404,306.528ZM422.221,322.95C420.414,321.143 416.057,322.566 412.497,326.125C408.938,329.685 407.515,334.042 409.322,335.849C411.129,337.656 415.486,336.234 419.046,332.674C422.605,329.115 424.028,324.758 422.221,322.95ZM410.79,314.766C408.577,313.488 404.737,315.99 402.22,320.349C399.703,324.709 399.456,329.285 401.67,330.563C403.883,331.841 407.723,329.339 410.24,324.98C412.757,320.62 413.004,316.043 410.79,314.766ZM351.324,344.012C352.602,341.799 350.1,337.958 345.74,335.442C341.381,332.925 336.804,332.678 335.526,334.891C334.248,337.105 336.75,340.945 341.11,343.462C345.469,345.979 350.046,346.225 351.324,344.012ZM346.405,361.768C346.405,359.212 342.319,357.137 337.285,357.137C332.251,357.137 328.164,359.212 328.164,361.768C328.164,364.323 332.251,366.398 337.285,366.398C342.319,366.398 346.405,364.323 346.405,361.768ZM436.988,348.036C436.326,345.567 431.842,344.621 426.979,345.924C422.117,347.227 418.706,350.289 419.368,352.757C420.029,355.226 424.514,356.172 429.376,354.869C434.238,353.566 437.649,350.505 436.988,348.036ZM347.745,352.757C348.406,350.289 344.995,347.227 340.133,345.924C335.271,344.621 330.786,345.567 330.125,348.036C329.463,350.505 332.874,353.566 337.736,354.869C342.599,356.172 347.083,355.226 347.745,352.757ZM431.248,389.34C432.525,387.127 430.024,383.287 425.664,380.77C421.305,378.253 416.728,378.006 415.45,380.219C414.172,382.433 416.674,386.273 421.034,388.79C425.393,391.307 429.97,391.554 431.248,389.34ZM430.744,335.172C429.466,332.959 424.89,333.205 420.53,335.722C416.171,338.239 413.669,342.079 414.947,344.293C416.225,346.506 420.801,346.259 425.161,343.743C429.52,341.226 432.022,337.385 430.744,335.172ZM383.404,398.766C380.848,398.766 378.773,402.853 378.773,407.887C378.773,412.92 380.848,417.007 383.404,417.007C385.959,417.007 388.034,412.92 388.034,407.887C388.034,402.853 385.959,398.766 383.404,398.766ZM436.649,375.915C437.31,373.446 433.9,370.384 429.038,369.082C424.175,367.779 419.691,368.725 419.029,371.194C418.368,373.662 421.778,376.724 426.641,378.027C431.503,379.33 435.988,378.384 436.649,375.915ZM438.644,361.768C438.644,359.212 434.557,357.137 429.523,357.137C424.489,357.137 420.402,359.212 420.402,361.768C420.402,364.323 424.489,366.398 429.523,366.398C434.557,366.398 438.644,364.323 438.644,361.768ZM347.745,371.329C347.083,368.86 342.599,367.914 337.736,369.217C332.874,370.52 329.463,373.582 330.125,376.05C330.786,378.519 335.271,379.465 340.133,378.162C344.995,376.859 348.406,373.798 347.745,371.329ZM374.411,397.714C371.942,397.053 368.88,400.463 367.577,405.326C366.274,410.188 367.221,414.673 369.689,415.334C372.158,415.996 375.22,412.585 376.523,407.723C377.826,402.86 376.879,398.376 374.411,397.714ZM365.385,393.855C363.172,392.577 359.331,395.079 356.814,399.438C354.297,403.798 354.051,408.374 356.264,409.652C358.477,410.93 362.318,408.428 364.835,404.069C367.352,399.709 367.598,395.132 365.385,393.855ZM351.604,380.635C350.326,378.422 345.75,378.669 341.39,381.186C337.031,383.703 334.529,387.543 335.807,389.756C337.085,391.969 341.661,391.723 346.021,389.206C350.38,386.689 352.882,382.849 351.604,380.635ZM397.142,308.471C394.674,307.81 391.612,311.22 390.309,316.083C389.006,320.945 389.952,325.43 392.421,326.091C394.89,326.753 397.952,323.342 399.254,318.48C400.557,313.617 399.611,309.133 397.142,308.471ZM409.322,387.778C407.515,389.585 408.938,393.942 412.497,397.501C416.057,401.061 420.414,402.484 422.221,400.677C424.028,398.869 422.605,394.512 419.046,390.953C415.486,387.393 411.129,385.971 409.322,387.778ZM356.079,314.112C353.865,315.39 354.112,319.966 356.629,324.326C359.146,328.685 362.986,331.187 365.199,329.909C367.413,328.631 367.166,324.055 364.649,319.695C362.132,315.336 358.292,312.834 356.079,314.112ZM344.495,322.95C342.688,324.758 344.11,329.115 347.67,332.674C351.229,336.234 355.586,337.656 357.394,335.849C359.201,334.042 357.778,329.685 354.218,326.125C350.659,322.566 346.302,321.143 344.495,322.95ZM400.981,394.094C398.768,395.371 399.014,399.948 401.531,404.308C404.048,408.667 407.888,411.169 410.102,409.891C412.315,408.613 412.068,404.037 409.551,399.677C407.034,395.318 403.194,392.816 400.981,394.094ZM369.409,308.752C366.94,309.413 365.994,313.898 367.297,318.76C368.599,323.623 371.661,327.033 374.13,326.372C376.599,325.71 377.545,321.226 376.242,316.363C374.939,311.501 371.877,308.091 369.409,308.752ZM392.421,397.434C389.952,398.095 389.006,402.58 390.309,407.442C391.612,412.304 394.674,415.715 397.142,415.054C399.611,414.392 400.557,409.907 399.254,405.045C397.952,400.183 394.89,396.772 392.421,397.434ZM357.394,387.778C355.586,385.971 351.229,387.393 347.67,390.953C344.11,394.512 342.688,398.869 344.495,400.677C346.302,402.484 350.659,401.061 354.218,397.501C357.778,393.942 359.201,389.585 357.394,387.778Z" style="fill:rgb(243,112,33);"/>
            </g>
            <g id="L_Reel" opacity="0" transform="matrix(2.178022,0,0,2.178022,-465.143681,-430.691164)">
                <path d="M383.404,303.061C415.805,303.061 442.11,329.366 442.11,361.768C442.11,394.169 415.805,420.474 383.404,420.474C351.003,420.474 324.697,394.169 324.697,361.768C324.697,329.366 351.003,303.061 383.404,303.061ZM393.923,338.189C387.228,335.202 379.579,335.202 372.884,338.189L376.066,344.053C374.518,344.694 373.061,345.536 371.731,346.556L368.244,340.868C362.31,345.173 358.485,351.797 357.724,359.089L364.394,359.265C364.175,360.926 364.175,362.609 364.394,364.27L357.724,364.447C358.485,371.738 362.31,378.362 368.244,382.667L371.731,376.979C373.061,378 374.518,378.841 376.066,379.482L372.884,385.346C379.579,388.333 387.228,388.333 393.923,385.346L390.741,379.482C392.29,378.841 393.747,378 395.076,376.979L398.564,382.667C404.498,378.362 408.322,371.738 409.083,364.447L402.414,364.27C402.633,362.609 402.633,360.926 402.414,359.265L409.083,359.089C408.322,351.797 404.498,345.173 398.564,340.868L395.076,346.556C393.747,345.536 392.29,344.694 390.741,344.053L393.923,338.189ZM383.404,306.528C380.848,306.528 378.773,310.615 378.773,315.648C378.773,320.682 380.848,324.769 383.404,324.769C385.959,324.769 388.034,320.682 388.034,315.648C388.034,310.615 385.959,306.528 383.404,306.528ZM422.221,322.95C420.414,321.143 416.057,322.566 412.497,326.125C408.938,329.685 407.515,334.042 409.322,335.849C411.129,337.656 415.486,336.234 419.046,332.674C422.605,329.115 424.028,324.758 422.221,322.95ZM410.79,314.766C408.577,313.488 404.737,315.99 402.22,320.349C399.703,324.709 399.456,329.285 401.67,330.563C403.883,331.841 407.723,329.339 410.24,324.98C412.757,320.62 413.004,316.043 410.79,314.766ZM351.324,344.012C352.602,341.799 350.1,337.958 345.74,335.442C341.381,332.925 336.804,332.678 335.526,334.891C334.248,337.105 336.75,340.945 341.11,343.462C345.469,345.979 350.046,346.225 351.324,344.012ZM346.405,361.768C346.405,359.212 342.319,357.137 337.285,357.137C332.251,357.137 328.164,359.212 328.164,361.768C328.164,364.323 332.251,366.398 337.285,366.398C342.319,366.398 346.405,364.323 346.405,361.768ZM436.988,348.036C436.326,345.567 431.842,344.621 426.979,345.924C422.117,347.227 418.706,350.289 419.368,352.757C420.029,355.226 424.514,356.172 429.376,354.869C434.238,353.566 437.649,350.505 436.988,348.036ZM347.745,352.757C348.406,350.289 344.995,347.227 340.133,345.924C335.271,344.621 330.786,345.567 330.125,348.036C329.463,350.505 332.874,353.566 337.736,354.869C342.599,356.172 347.083,355.226 347.745,352.757ZM431.248,389.34C432.525,387.127 430.024,383.287 425.664,380.77C421.305,378.253 416.728,378.006 415.45,380.219C414.172,382.433 416.674,386.273 421.034,388.79C425.393,391.307 429.97,391.554 431.248,389.34ZM430.744,335.172C429.466,332.959 424.89,333.205 420.53,335.722C416.171,338.239 413.669,342.079 414.947,344.293C416.225,346.506 420.801,346.259 425.161,343.743C429.52,341.226 432.022,337.385 430.744,335.172ZM383.404,398.766C380.848,398.766 378.773,402.853 378.773,407.887C378.773,412.92 380.848,417.007 383.404,417.007C385.959,417.007 388.034,412.92 388.034,407.887C388.034,402.853 385.959,398.766 383.404,398.766ZM436.649,375.915C437.31,373.446 433.9,370.384 429.038,369.082C424.175,367.779 419.691,368.725 419.029,371.194C418.368,373.662 421.778,376.724 426.641,378.027C431.503,379.33 435.988,378.384 436.649,375.915ZM438.644,361.768C438.644,359.212 434.557,357.137 429.523,357.137C424.489,357.137 420.402,359.212 420.402,361.768C420.402,364.323 424.489,366.398 429.523,366.398C434.557,366.398 438.644,364.323 438.644,361.768ZM347.745,371.329C347.083,368.86 342.599,367.914 337.736,369.217C332.874,370.52 329.463,373.582 330.125,376.05C330.786,378.519 335.271,379.465 340.133,378.162C344.995,376.859 348.406,373.798 347.745,371.329ZM374.411,397.714C371.942,397.053 368.88,400.463 367.577,405.326C366.274,410.188 367.221,414.673 369.689,415.334C372.158,415.996 375.22,412.585 376.523,407.723C377.826,402.86 376.879,398.376 374.411,397.714ZM365.385,393.855C363.172,392.577 359.331,395.079 356.814,399.438C354.297,403.798 354.051,408.374 356.264,409.652C358.477,410.93 362.318,408.428 364.835,404.069C367.352,399.709 367.598,395.132 365.385,393.855ZM351.604,380.635C350.326,378.422 345.75,378.669 341.39,381.186C337.031,383.703 334.529,387.543 335.807,389.756C337.085,391.969 341.661,391.723 346.021,389.206C350.38,386.689 352.882,382.849 351.604,380.635ZM397.142,308.471C394.674,307.81 391.612,311.22 390.309,316.083C389.006,320.945 389.952,325.43 392.421,326.091C394.89,326.753 397.952,323.342 399.254,318.48C400.557,313.617 399.611,309.133 397.142,308.471ZM409.322,387.778C407.515,389.585 408.938,393.942 412.497,397.501C416.057,401.061 420.414,402.484 422.221,400.677C424.028,398.869 422.605,394.512 419.046,390.953C415.486,387.393 411.129,385.971 409.322,387.778ZM356.079,314.112C353.865,315.39 354.112,319.966 356.629,324.326C359.146,328.685 362.986,331.187 365.199,329.909C367.413,328.631 367.166,324.055 364.649,319.695C362.132,315.336 358.292,312.834 356.079,314.112ZM344.495,322.95C342.688,324.758 344.11,329.115 347.67,332.674C351.229,336.234 355.586,337.656 357.394,335.849C359.201,334.042 357.778,329.685 354.218,326.125C350.659,322.566 346.302,321.143 344.495,322.95ZM400.981,394.094C398.768,395.371 399.014,399.948 401.531,404.308C404.048,408.667 407.888,411.169 410.102,409.891C412.315,408.613 412.068,404.037 409.551,399.677C407.034,395.318 403.194,392.816 400.981,394.094ZM369.409,308.752C366.94,309.413 365.994,313.898 367.297,318.76C368.599,323.623 371.661,327.033 374.13,326.372C376.599,325.71 377.545,321.226 376.242,316.363C374.939,311.501 371.877,308.091 369.409,308.752ZM392.421,397.434C389.952,398.095 389.006,402.58 390.309,407.442C391.612,412.304 394.674,415.715 397.142,415.054C399.611,414.392 400.557,409.907 399.254,405.045C397.952,400.183 394.89,396.772 392.421,397.434ZM357.394,387.778C355.586,385.971 351.229,387.393 347.67,390.953C344.11,394.512 342.688,398.869 344.495,400.677C346.302,402.484 350.659,401.061 354.218,397.501C357.778,393.942 359.201,389.585 357.394,387.778Z" style="fill:rgb(243,112,33);"/>
            </g>
            <g id="Window" transform="matrix(1.15564,0,0,0.730766,-95.719141,94.417337)">
                <rect x="492.117" y="268.054" width="248.064" height="181.957" style="fill:rgb(167,167,167);fill-opacity:0.6;"/>
            </g>
            <g id="Case" transform="matrix(1.063969,0,0,1.063969,-39.236326,-25.213526)">
                <path d="M71.729,490.172L71.729,71.788C71.729,54.764 85.551,40.942 102.575,40.942L1126.629,40.942C1143.653,40.942 1157.475,54.764 1157.475,71.788L1157.475,490.172L1164.729,496.828L1164.729,672.5L1157.475,679.754L1157.475,709.262C1157.475,726.286 1143.653,740.108 1126.629,740.108L999.039,740.108L988.489,745.383L242.436,742.12L237.741,740.108L102.575,740.108C85.551,740.108 71.729,726.286 71.729,709.262L71.729,679.156L65.074,672.5L65.074,496.828L71.729,490.172ZM844.999,300.759C812.598,300.759 786.292,327.064 786.292,359.465C786.292,391.866 812.598,418.172 844.999,418.172C877.4,418.172 903.706,391.866 903.706,359.465C903.706,327.064 877.4,300.759 844.999,300.759ZM492.117,301.245L492.117,416.82L740.181,416.82L740.181,301.245L492.117,301.245ZM353.2,679.835C339.8,679.835 328.92,690.714 328.92,704.115C328.92,717.515 339.8,728.395 353.2,728.395C366.601,728.395 377.48,717.515 377.48,704.115C377.48,690.714 366.601,679.835 353.2,679.835ZM485.233,680.333C485.233,673.123 479.379,667.27 472.17,667.27L453.058,667.27C445.849,667.27 439.995,673.123 439.995,680.333L439.995,695.523C439.995,702.732 445.849,708.586 453.058,708.586L472.17,708.586C479.379,708.586 485.233,702.732 485.233,695.523L485.233,680.333ZM791.465,680.333C791.465,673.123 785.611,667.27 778.402,667.27L759.291,667.27C752.081,667.27 746.227,673.123 746.227,680.333L746.227,695.523C746.227,702.732 752.081,708.586 759.291,708.586L778.402,708.586C785.611,708.586 791.465,702.732 791.465,695.523L791.465,680.333ZM384.555,300.759C352.154,300.759 325.848,327.064 325.848,359.465C325.848,391.866 352.154,418.172 384.555,418.172C416.956,418.172 443.262,391.866 443.262,359.465C443.262,327.064 416.956,300.759 384.555,300.759ZM875.798,679.835C862.398,679.835 851.518,690.714 851.518,704.115C851.518,717.515 862.398,728.395 875.798,728.395C889.199,728.395 900.078,717.515 900.078,704.115C900.078,690.714 889.199,679.835 875.798,679.835Z" style="fill:rgb(16,24,28);"/>
            </g>
            <g transform="matrix(1.063969,0,0,1.063969,-39.236326,-25.213526)">
                <path d="M71.729,490.172L71.729,71.788C71.729,54.764 85.551,40.942 102.575,40.942L1126.629,40.942C1143.653,40.942 1157.475,54.764 1157.475,71.788L1157.475,490.172L1164.729,496.828L1164.729,672.5L1157.475,679.754L1157.475,709.262C1157.475,726.286 1143.653,740.108 1126.629,740.108L999.039,740.108L988.489,745.383L242.436,742.12L237.741,740.108L102.575,740.108C85.551,740.108 71.729,726.286 71.729,709.262L71.729,679.156L65.074,672.5L65.074,496.828L71.729,490.172ZM485.233,680.333C485.233,673.123 479.379,667.27 472.17,667.27L453.058,667.27C445.849,667.27 439.995,673.123 439.995,680.333L439.995,695.523C439.995,702.732 445.849,708.586 453.058,708.586L472.17,708.586C479.379,708.586 485.233,702.732 485.233,695.523L485.233,680.333ZM791.465,680.333C791.465,673.123 785.611,667.27 778.402,667.27L759.291,667.27C752.081,667.27 746.227,673.123 746.227,680.333L746.227,695.523C746.227,702.732 752.081,708.586 759.291,708.586L778.402,708.586C785.611,708.586 791.465,702.732 791.465,695.523L791.465,680.333ZM353.2,679.835C339.8,679.835 328.92,690.714 328.92,704.115C328.92,717.515 339.8,728.395 353.2,728.395C366.601,728.395 377.48,717.515 377.48,704.115C377.48,690.714 366.601,679.835 353.2,679.835ZM740.181,450.011L740.181,268.054L492.117,268.054L492.117,450.011L740.181,450.011ZM384.555,300.759C352.154,300.759 325.848,327.064 325.848,359.465C325.848,391.866 352.154,418.172 384.555,418.172C416.956,418.172 443.262,391.866 443.262,359.465C443.262,327.064 416.956,300.759 384.555,300.759ZM875.798,679.835C862.398,679.835 851.518,690.714 851.518,704.115C851.518,717.515 862.398,728.395 875.798,728.395C889.199,728.395 900.078,717.515 900.078,704.115C900.078,690.714 889.199,679.835 875.798,679.835ZM844.999,300.759C812.598,300.759 786.292,327.064 786.292,359.465C786.292,391.866 812.598,418.172 844.999,418.172C877.4,418.172 903.706,391.866 903.706,359.465C903.706,327.064 877.4,300.759 844.999,300.759Z" style="fill:rgb(16,24,28);"/>
            </g>
            <g id="T_Label" transform="matrix(1.063969,0,0,2.776517,-40.126458,-182.005038)">
                <path d="M1086.732,103.462L1086.732,236.754C1086.732,240.313 1079.191,243.203 1069.902,243.203L151.595,243.203C142.306,243.203 134.764,240.313 134.764,236.754L134.764,103.462C134.764,99.902 142.306,97.012 151.595,97.012L1069.902,97.012C1079.191,97.012 1086.732,99.902 1086.732,103.462ZM917.483,178.318C917.483,172.096 904.3,167.045 888.063,167.045L333.433,167.045C317.196,167.045 304.014,172.096 304.014,178.318L304.014,210.528C304.014,216.75 317.196,221.801 333.433,221.801L888.063,221.801C904.3,221.801 917.483,216.75 917.483,210.528L917.483,178.318Z" style="fill:white;"/>
            </g>
            <g id="Screws" transform="matrix(1.063969,0,0,1.063969,-39.236326,-25.213526)">
                <g id="TL_Screw" transform="matrix(0.913883,-0.405977,0.405977,0.913883,-20.655787,47.974365)">
                    <g transform="matrix(1.031228,0,0,1.031228,-2.536814,-2.269523)">
                        <path d="M104.753,51.975C115.02,53.279 122.97,62.056 122.97,72.676C122.97,83.295 115.02,92.072 104.753,93.376L104.753,51.975Z"/>
                    </g>
                    <g transform="matrix(1.031228,0,0,1.031228,-2.536814,-2.269523)">
                        <path d="M99.452,93.376C89.184,92.072 81.235,83.295 81.235,72.676C81.235,62.056 89.184,53.279 99.452,51.975L99.452,93.376Z"/>
                    </g>
                    <g transform="matrix(1,0,0,1,0.656326,-0.706874)">
                        <path d="M99.364,94.729L99.364,52.036C100.26,51.922 101.172,51.863 102.098,51.863C103.024,51.863 103.936,51.922 104.831,52.036L104.831,94.729C103.936,94.843 103.024,94.902 102.098,94.902C101.172,94.902 100.26,94.843 99.364,94.729Z" style="fill:rgb(108,108,108);"/>
                    </g>
                </g>
                <g id="TR_Screw" transform="matrix(0.687652,-0.726041,0.726041,0.687652,1005.685042,97.303723)">
                    <g transform="matrix(1.031228,0,0,1.031228,-2.536814,-2.269523)">
                        <path d="M104.753,51.975C115.02,53.279 122.97,62.056 122.97,72.676C122.97,83.295 115.02,92.072 104.753,93.376L104.753,51.975Z"/>
                    </g>
                    <g transform="matrix(1.031228,0,0,1.031228,-2.536814,-2.269523)">
                        <path d="M99.452,93.376C89.184,92.072 81.235,83.295 81.235,72.676C81.235,62.056 89.184,53.279 99.452,51.975L99.452,93.376Z"/>
                    </g>
                    <g transform="matrix(1,0,0,1,0.656326,-0.706874)">
                        <path d="M99.364,94.729L99.364,52.036C100.26,51.922 101.172,51.863 102.098,51.863C103.024,51.863 103.936,51.922 104.831,52.036L104.831,94.729C103.936,94.843 103.024,94.902 102.098,94.902C101.172,94.902 100.26,94.843 99.364,94.729Z" style="fill:rgb(108,108,108);"/>
                    </g>
                </g>
                <g id="BL_Screw" transform="matrix(0.713511,0.700644,-0.700644,0.713511,80.357563,585.88499)">
                    <g transform="matrix(1.031228,0,0,1.031228,-2.536814,-2.269523)">
                        <path d="M104.753,51.975C115.02,53.279 122.97,62.056 122.97,72.676C122.97,83.295 115.02,92.072 104.753,93.376L104.753,51.975Z"/>
                    </g>
                    <g transform="matrix(1.031228,0,0,1.031228,-2.536814,-2.269523)">
                        <path d="M99.452,93.376C89.184,92.072 81.235,83.295 81.235,72.676C81.235,62.056 89.184,53.279 99.452,51.975L99.452,93.376Z"/>
                    </g>
                    <g transform="matrix(1,0,0,1,0.656326,-0.706874)">
                        <path d="M99.364,94.729L99.364,52.036C100.26,51.922 101.172,51.863 102.098,51.863C103.024,51.863 103.936,51.922 104.831,52.036L104.831,94.729C103.936,94.843 103.024,94.902 102.098,94.902C101.172,94.902 100.26,94.843 99.364,94.729Z" style="fill:rgb(108,108,108);"/>
                    </g>
                </g>
                <g id="BR_Screw" transform="matrix(-0.234094,-0.972214,0.972214,-0.234094,1082.507268,826.645585)">
                    <g transform="matrix(1.031228,0,0,1.031228,-2.536814,-2.269523)">
                        <path d="M104.753,51.975C115.02,53.279 122.97,62.056 122.97,72.676C122.97,83.295 115.02,92.072 104.753,93.376L104.753,51.975Z"/>
                    </g>
                    <g transform="matrix(1.031228,0,0,1.031228,-2.536814,-2.269523)">
                        <path d="M99.452,93.376C89.184,92.072 81.235,83.295 81.235,72.676C81.235,62.056 89.184,53.279 99.452,51.975L99.452,93.376Z"/>
                    </g>
                    <g transform="matrix(1,0,0,1,0.656326,-0.706874)">
                        <path d="M99.364,94.729L99.364,52.036C100.26,51.922 101.172,51.863 102.098,51.863C103.024,51.863 103.936,51.922 104.831,52.036L104.831,94.729C103.936,94.843 103.024,94.902 102.098,94.902C101.172,94.902 100.26,94.843 99.364,94.729Z" style="fill:rgb(108,108,108);"/>
                    </g>
                </g>
                <g id="BC_Screw" transform="matrix(0.875751,-0.482763,0.482763,0.875751,490.679602,616.903818)">
                    <g transform="matrix(1.031228,0,0,1.031228,-2.536814,-2.269523)">
                        <path d="M104.753,51.975C115.02,53.279 122.97,62.056 122.97,72.676C122.97,83.295 115.02,92.072 104.753,93.376L104.753,51.975Z"/>
                    </g>
                    <g transform="matrix(1.031228,0,0,1.031228,-2.536814,-2.269523)">
                        <path d="M99.452,93.376C89.184,92.072 81.235,83.295 81.235,72.676C81.235,62.056 89.184,53.279 99.452,51.975L99.452,93.376Z"/>
                    </g>
                    <g transform="matrix(1,0,0,1,0.656326,-0.706874)">
                        <path d="M99.364,94.729L99.364,52.036C100.26,51.922 101.172,51.863 102.098,51.863C103.024,51.863 103.936,51.922 104.831,52.036L104.831,94.729C103.936,94.843 103.024,94.902 102.098,94.902C101.172,94.902 100.26,94.843 99.364,94.729Z" style="fill:rgb(108,108,108);"/>
                    </g>
                </g>
            </g>
            <g transform="matrix(1,0,0,1,13.001478,-237.189403)">
                <g transform="matrix(66.666667,0,0,66.666667,119.647504,724.508804)">
                    <path d="M0.309,0.014C0.255,0.014 0.207,0.004 0.166,-0.015C0.125,-0.034 0.092,-0.062 0.069,-0.098C0.046,-0.134 0.034,-0.177 0.034,-0.228L0.034,-0.256L0.164,-0.256L0.164,-0.228C0.164,-0.186 0.177,-0.154 0.203,-0.134C0.229,-0.113 0.264,-0.102 0.309,-0.102C0.354,-0.102 0.388,-0.111 0.411,-0.129C0.433,-0.147 0.444,-0.17 0.444,-0.198C0.444,-0.217 0.439,-0.233 0.427,-0.245C0.417,-0.257 0.401,-0.267 0.38,-0.275C0.359,-0.282 0.333,-0.289 0.303,-0.296L0.28,-0.301C0.232,-0.312 0.191,-0.325 0.157,-0.342C0.122,-0.358 0.096,-0.379 0.077,-0.406C0.059,-0.433 0.05,-0.467 0.05,-0.51C0.05,-0.553 0.06,-0.589 0.081,-0.62C0.101,-0.65 0.13,-0.673 0.167,-0.69C0.204,-0.706 0.247,-0.714 0.297,-0.714C0.347,-0.714 0.392,-0.705 0.43,-0.689C0.47,-0.671 0.5,-0.646 0.522,-0.613C0.545,-0.579 0.556,-0.537 0.556,-0.486L0.556,-0.456L0.426,-0.456L0.426,-0.486C0.426,-0.513 0.421,-0.534 0.411,-0.55C0.4,-0.567 0.385,-0.579 0.366,-0.587C0.347,-0.594 0.324,-0.598 0.297,-0.598C0.257,-0.598 0.228,-0.591 0.208,-0.576C0.19,-0.561 0.18,-0.54 0.18,-0.514C0.18,-0.497 0.184,-0.482 0.194,-0.47C0.203,-0.458 0.216,-0.448 0.234,-0.44C0.252,-0.432 0.275,-0.425 0.303,-0.419L0.326,-0.414C0.376,-0.403 0.42,-0.39 0.457,-0.373C0.494,-0.356 0.522,-0.334 0.543,-0.307C0.564,-0.28 0.574,-0.245 0.574,-0.202C0.574,-0.159 0.563,-0.122 0.541,-0.089C0.52,-0.057 0.489,-0.032 0.45,-0.013C0.41,0.005 0.363,0.014 0.309,0.014Z" style="fill:rgb(16,24,28);fill-rule:nonzero;"/>
                </g>
                <g transform="matrix(66.666667,0,0,66.666667,160.047504,724.508804)">
                    <path d="M0.07,-0L0.07,-0.496L0.196,-0.496L0.196,-0L0.07,-0ZM0.133,-0.554C0.11,-0.554 0.091,-0.561 0.075,-0.576C0.06,-0.591 0.052,-0.61 0.052,-0.634C0.052,-0.658 0.06,-0.677 0.075,-0.692C0.091,-0.707 0.11,-0.714 0.133,-0.714C0.156,-0.714 0.176,-0.707 0.191,-0.692C0.206,-0.677 0.214,-0.658 0.214,-0.634C0.214,-0.61 0.206,-0.591 0.191,-0.576C0.176,-0.561 0.156,-0.554 0.133,-0.554Z" style="fill:rgb(16,24,28);fill-rule:nonzero;"/>
                </g>
                <g transform="matrix(66.666667,0,0,66.666667,177.780837,724.508804)">
                    <path d="M0.27,0.014C0.231,0.014 0.194,0.004 0.16,-0.015C0.125,-0.035 0.098,-0.064 0.077,-0.102C0.056,-0.14 0.046,-0.186 0.046,-0.24L0.046,-0.256C0.046,-0.31 0.056,-0.356 0.077,-0.394C0.098,-0.432 0.125,-0.461 0.159,-0.48C0.193,-0.5 0.23,-0.51 0.27,-0.51C0.3,-0.51 0.325,-0.507 0.346,-0.499C0.366,-0.492 0.382,-0.484 0.395,-0.473C0.408,-0.462 0.417,-0.451 0.424,-0.439L0.442,-0.439L0.442,-0.7L0.568,-0.7L0.568,-0L0.444,-0L0.444,-0.06L0.426,-0.06C0.415,-0.041 0.397,-0.024 0.373,-0.009C0.35,0.006 0.315,0.014 0.27,0.014ZM0.308,-0.096C0.347,-0.096 0.379,-0.108 0.405,-0.134C0.431,-0.159 0.444,-0.195 0.444,-0.243L0.444,-0.253C0.444,-0.301 0.431,-0.337 0.406,-0.362C0.38,-0.388 0.347,-0.4 0.308,-0.4C0.269,-0.4 0.237,-0.388 0.211,-0.362C0.185,-0.337 0.172,-0.301 0.172,-0.253L0.172,-0.243C0.172,-0.195 0.185,-0.159 0.211,-0.134C0.237,-0.108 0.269,-0.096 0.308,-0.096Z" style="fill:rgb(16,24,28);fill-rule:nonzero;"/>
                </g>
                <g transform="matrix(66.666667,0,0,66.666667,220.314171,724.508804)">
                    <path d="M0.296,0.014C0.247,0.014 0.203,0.003 0.166,-0.018C0.128,-0.038 0.098,-0.068 0.077,-0.106C0.056,-0.145 0.046,-0.19 0.046,-0.242L0.046,-0.254C0.046,-0.306 0.056,-0.351 0.077,-0.39C0.098,-0.428 0.127,-0.458 0.164,-0.479C0.201,-0.499 0.245,-0.51 0.294,-0.51C0.343,-0.51 0.385,-0.499 0.421,-0.478C0.457,-0.456 0.485,-0.426 0.505,-0.388C0.525,-0.349 0.535,-0.305 0.535,-0.254L0.535,-0.211L0.174,-0.211C0.175,-0.177 0.188,-0.149 0.212,-0.128C0.236,-0.107 0.265,-0.096 0.3,-0.096C0.335,-0.096 0.361,-0.104 0.378,-0.119C0.395,-0.134 0.407,-0.151 0.416,-0.17L0.519,-0.116C0.51,-0.099 0.496,-0.08 0.479,-0.06C0.461,-0.039 0.437,-0.022 0.408,-0.007C0.379,0.007 0.341,0.014 0.296,0.014ZM0.175,-0.305L0.407,-0.305C0.404,-0.334 0.393,-0.357 0.372,-0.374C0.352,-0.391 0.326,-0.4 0.293,-0.4C0.259,-0.4 0.232,-0.391 0.212,-0.374C0.192,-0.357 0.18,-0.334 0.175,-0.305Z" style="fill:rgb(16,24,28);fill-rule:nonzero;"/>
                </g>
                <g transform="matrix(66.666667,0,0,66.666667,258.780837,724.508804)">
                </g>
                <g transform="matrix(66.666667,0,0,66.666667,274.914171,724.508804)">
                    <path d="M0.018,-0L0.202,-0.7L0.432,-0.7L0.616,-0L0.48,-0L0.442,-0.154L0.192,-0.154L0.154,-0L0.018,-0ZM0.223,-0.276L0.411,-0.276L0.326,-0.617L0.308,-0.617L0.223,-0.276Z" style="fill:rgb(16,24,28);fill-rule:nonzero;"/>
                </g>
                <g transform="matrix(66.666667,0,0,66.666667,317.180837,724.508804)">
                </g>
            </g>
            <path d="M213.836,762.216L249.551,582.062L972.577,583.212L1023.69,762.189" style="fill:none;stroke:rgb(76,76,76);stroke-width:3.41px;"/>
            <g transform="matrix(1.187387,0,0,1,-1642.984336,-2.075771)">
                <path d="M1496.714,336.315L1496.714,290.302L1632.681,290.302C1626.383,296.024 1622.318,305.04 1622.318,315.174L1622.318,336.315L1496.714,336.315Z" style="fill:rgb(177,17,23);"/>
            </g>
            <g transform="matrix(1.187387,0,0,1,-1642.984336,-2.075771)">
                <path d="M2161.66,290.302L2306.569,290.302L2306.569,336.315L2172.022,336.315L2172.022,315.174C2172.022,305.04 2167.958,296.024 2161.66,290.302Z" style="fill:rgb(177,17,23);"/>
            </g>
            <g transform="matrix(1.187387,0,0,1,-1642.984336,43.937957)">
                <rect x="2172.022" y="290.302" width="134.546" height="46.014" style="fill:rgb(42,188,159);"/>
            </g>
            <g transform="matrix(1.187387,0,0,1,-1642.984336,43.937957)">
                <rect x="1496.714" y="290.302" width="125.604" height="46.014" style="fill:rgb(42,188,159);"/>
            </g>
            <g transform="matrix(1.187387,0,0,1,-1642.984336,89.951685)">
                <path d="M1631.503,336.315L1496.714,336.315L1496.714,290.302L1622.318,290.302L1622.318,312.578C1622.318,322.066 1625.881,330.573 1631.503,336.315Z" style="fill:rgb(0,112,149);"/>
            </g>
            <g transform="matrix(1.187387,0,0,1,-1642.984336,89.951685)">
                <path d="M2172.022,290.302L2306.569,290.302L2306.569,336.315L2162.837,336.315C2168.46,330.573 2172.022,322.066 2172.022,312.578L2172.022,290.302Z" style="fill:rgb(0,112,149);"/>
            </g>
            <g transform="matrix(1.007907,0,0,2.065217,-1301.685796,-129.407189)">
                <rect x="1426.99" y="120.744" width="951.693" height="69.345" style="fill:none;stroke:rgb(16,24,28);stroke-width:4.16px;"/>
            </g>
            <g transform="matrix(0.977466,0,0,1,-1238.37764,1.758744)">
                <path d="M1439.05,165.933L2355.607,165.933" style="fill:none;stroke:rgb(16,24,28);stroke-width:6.83px;"/>
            </g>
            <g transform="matrix(0.977466,0,0,1,-1238.37764,49.496082)">
                <path d="M1439.05,165.933L2355.607,165.933" style="fill:none;stroke:rgb(16,24,28);stroke-width:6.83px;"/>
            </g>
        </g>
    </g>
</svg>
