<?xml version="1.0" encoding="UTF-8" standalone="no"?>
<!DOCTYPE svg PUBLIC "-//W3C//DTD SVG 1.1//EN" "http://www.w3.org/Graphics/SVG/1.1/DTD/svg11.dtd">
<svg width="100%" height="100%" viewBox="0 0 500 95" version="1.1" xmlns="http://www.w3.org/2000/svg" xmlns:xlink="http://www.w3.org/1999/xlink" xml:space="preserve" xmlns:serif="http://www.serif.com/" style="fill-rule:evenodd;clip-rule:evenodd;stroke-linejoin:round;stroke-miterlimit:2;">
    <g transform="matrix(2.77226,0,0,2.77226,-734.216,-1137.07)">
        <path d="M364.602,422.462C369.518,416.39 361.711,412.92 356.795,416.679C356.506,408.004 347.189,410.975 348.564,417.725C339.439,412.35 336.314,423.975 343.314,425.6C343.314,425.6 338.576,427.089 338.287,429.691C337.998,433.45 342.416,434.381 344.439,433.225C340.564,441.6 348.986,445.018 355.059,437.788C357.373,444.729 368.939,441.85 364.814,432.725C367.707,432.436 370.385,433.161 371.831,430.27C373.566,425.932 369.229,421.016 364.602,422.462Z" style="fill:rgb(255,192,203);fill-rule:nonzero;"/>
        <path d="M362.289,427.378C362.253,427.294 362.354,427.139 362.553,426.939C362.646,426.834 362.784,426.74 362.908,426.6C363.026,426.451 363.16,426.292 363.312,426.128C363.85,425.434 364.191,424.186 363.621,423.058C363.035,421.932 361.83,421.738 360.967,422.021C360.745,422.09 360.543,422.151 360.365,422.206C360.194,422.289 360.04,422.356 359.907,422.405C359.64,422.504 359.456,422.53 359.396,422.462C359.337,422.394 359.408,422.233 359.602,421.993C359.698,421.873 359.825,421.733 359.981,421.576C360.155,421.441 360.374,421.307 360.619,421.156C360.853,420.987 361.19,420.936 361.523,420.822C361.693,420.771 361.89,420.789 362.084,420.775C362.281,420.763 362.483,420.767 362.688,420.831C363.524,420.979 364.354,421.598 364.788,422.445C365.23,423.293 365.274,424.241 365.068,425.015C364.993,425.414 364.786,425.742 364.619,426.05C364.419,426.336 364.188,426.57 363.984,426.773C363.747,426.941 363.53,427.083 363.34,427.197C363.144,427.303 362.95,427.343 362.803,427.387C362.499,427.464 362.325,427.461 362.289,427.378Z" style="fill:rgb(3,4,4);fill-rule:nonzero;"/>
        <path d="M359.396,422.462C359.308,422.441 359.249,422.25 359.217,421.937C359.2,421.779 359.191,421.592 359.189,421.379C359.156,421.174 359.119,420.941 359.079,420.686C359.066,420.425 358.909,420.207 358.844,419.942C358.688,419.738 358.576,419.485 358.342,419.354C357.932,419.036 357.279,418.935 356.567,419.08C355.857,419.218 355.186,419.557 354.667,419.966C354.118,420.351 353.741,420.829 353.423,421.236C352.85,422.093 352.673,422.778 352.457,422.751C352.367,422.74 352.317,422.558 352.31,422.214C352.275,421.864 352.391,421.381 352.604,420.793C352.867,420.235 353.256,419.574 353.892,419.031C354.5,418.464 355.324,417.984 356.31,417.787C357.274,417.58 358.403,417.749 359.129,418.429C359.519,418.738 359.689,419.172 359.859,419.537C359.925,419.923 360.052,420.286 360.007,420.599C359.984,420.912 359.97,421.195 359.925,421.432C359.854,421.663 359.787,421.858 359.724,422.015C359.597,422.327 359.484,422.482 359.396,422.462Z" style="fill:rgb(3,4,4);fill-rule:nonzero;"/>
        <path d="M352.457,422.751C352.25,422.807 352.085,422.014 351.394,421.339C351.046,421.02 350.557,420.818 349.943,420.853C349.335,420.901 348.629,421.154 348.024,421.618C347.412,422.069 346.973,422.662 346.772,423.242C346.574,423.824 346.615,424.393 346.785,424.864C347.119,425.823 347.693,426.353 347.541,426.51C347.467,426.615 346.66,426.406 345.942,425.262C345.589,424.701 345.376,423.82 345.604,422.911C345.827,422.011 346.422,421.163 347.235,420.563C348.042,419.95 349.008,419.625 349.935,419.638C350.875,419.65 351.713,420.151 352.102,420.732C352.854,421.928 352.579,422.747 352.457,422.751Z" style="fill:rgb(3,4,4);fill-rule:nonzero;"/>
        <path d="M357.084,433.739C357.168,433.775 357.188,433.924 357.147,434.177C357.125,434.303 357.094,434.456 357.035,434.629C356.957,434.794 356.857,434.982 356.737,435.188C356.601,435.384 356.408,435.589 356.182,435.784C355.926,435.957 355.638,436.138 355.277,436.208C354.569,436.38 353.775,436.195 353.14,435.835C351.854,435.094 351.192,433.982 350.852,433.17C350.523,432.332 350.559,431.757 350.722,431.715C350.908,431.662 351.185,432.099 351.664,432.713C352.146,433.31 352.851,434.159 353.781,434.683C354.72,435.219 355.483,435.063 356.039,434.571C356.167,434.446 356.292,434.335 356.411,434.236C356.516,434.124 356.604,434.021 356.691,433.941C356.862,433.782 357.001,433.704 357.084,433.739Z" style="fill:rgb(3,4,4);fill-rule:nonzero;"/>
        <path d="M350.723,431.715C350.811,431.733 350.855,431.889 350.855,432.17C350.862,432.453 350.826,432.857 350.604,433.346C350.419,433.818 349.97,434.447 349.158,434.707C348.339,434.974 347.381,434.664 346.745,434.092C345.391,432.94 345.372,431.029 345.953,430.136C346.105,429.913 346.249,429.722 346.378,429.563C346.521,429.417 346.677,429.322 346.793,429.242C347.036,429.089 347.19,429.046 347.252,429.113C347.313,429.181 347.278,429.351 347.178,429.583C347.132,429.701 347.05,429.825 346.986,429.979C346.939,430.142 346.883,430.315 346.813,430.498C346.774,430.689 346.754,430.899 346.726,431.112C346.762,431.332 346.724,431.562 346.817,431.792C346.924,432.254 347.196,432.749 347.612,433.099C348.474,433.854 349.32,433.564 349.802,432.872C349.912,432.705 350.047,432.569 350.132,432.42C350.212,432.268 350.289,432.136 350.362,432.028C350.508,431.814 350.633,431.696 350.723,431.715Z" style="fill:rgb(3,4,4);fill-rule:nonzero;"/>
        <path d="M358.24,427.089C358.357,426.994 358.868,427.297 359.23,428.167C359.566,429.005 359.604,430.524 358.515,431.685C357.984,432.255 357.169,432.558 356.476,432.49C355.778,432.44 355.246,432.128 354.904,431.826C354.737,431.666 354.59,431.521 354.478,431.385C354.38,431.234 354.305,431.103 354.25,430.989C354.142,430.764 354.121,430.617 354.191,430.559C354.261,430.501 354.414,430.534 354.621,430.635C354.724,430.685 354.841,430.752 354.967,430.834C355.1,430.896 355.25,430.968 355.415,431.047C356.064,431.359 356.927,431.442 357.572,430.763C358.223,430.075 358.379,429.079 358.325,428.388C358.262,427.684 358.071,427.206 358.24,427.089Z" style="fill:rgb(3,4,4);fill-rule:nonzero;"/>
        <path d="M362,427.667C362.109,427.557 362.622,427.783 363.047,428.554C363.463,429.306 363.617,430.653 362.947,431.871C362.611,432.47 362.11,432.944 361.572,433.226C361.036,433.528 360.461,433.559 360.027,433.535C359.14,433.415 358.761,433.01 358.818,432.872C358.885,432.678 359.371,432.729 359.995,432.604C360.616,432.471 361.335,432.052 361.794,431.231C362.242,430.407 362.281,429.508 362.17,428.87C362.058,428.229 361.848,427.8 362,427.667Z" style="fill:rgb(3,4,4);fill-rule:nonzero;"/>
        <path d="M335.65,425.686C335.561,425.736 335.313,425.411 334.621,425.188C333.938,424.949 332.868,424.78 331.513,424.604C330.161,424.406 328.51,424.24 326.696,423.581C325.805,423.234 324.835,422.725 324.104,421.805C323.746,421.344 323.49,420.788 323.348,420.211C323.276,419.92 323.235,419.628 323.224,419.334C323.221,419.247 323.207,419.217 323.213,419.083L323.227,418.705L323.24,418.325L323.247,418.135C323.257,418.078 323.224,417.984 323.315,417.994C323.738,417.912 324.158,417.829 324.576,417.747C324.841,417.686 325.115,417.673 325.383,417.643C325.917,417.569 326.455,417.59 326.978,417.594C328.028,417.648 329.027,417.878 329.932,418.2C331.745,418.873 333.121,419.946 334.114,420.941C336.096,422.967 336.808,424.566 336.689,424.641C336.513,424.773 335.514,423.365 333.486,421.63C332.472,420.775 331.154,419.881 329.532,419.348C328.722,419.094 327.846,418.916 326.923,418.885C326.462,418.892 325.991,418.876 325.516,418.947C325.277,418.978 325.037,418.986 324.798,419.045L324.529,419.099L324.528,419.118L324.527,419.129L324.538,419.265C324.545,419.488 324.574,419.703 324.624,419.908C324.724,420.318 324.888,420.694 325.13,421.021C325.622,421.669 326.373,422.122 327.149,422.454C328.729,423.1 330.344,423.375 331.678,423.686C333.02,423.982 334.133,424.301 334.84,424.723C335.573,425.142 335.731,425.664 335.65,425.686Z" style="fill:rgb(3,4,4);fill-rule:nonzero;"/>
        <path d="M337.176,432.615C337.094,432.574 337.385,432.249 337.78,431.868L338.127,432.191C337.539,433.043 336.416,434.494 334.672,436.092C333.79,436.877 332.759,437.713 331.479,438.394C330.832,438.718 330.146,439.047 329.363,439.22C328.986,439.341 328.567,439.356 328.159,439.416L327.524,439.402C327.397,439.391 327.358,439.416 327.158,439.373L326.608,439.267L325.896,439.128C325.859,439.103 325.727,439.137 325.769,439.063L325.814,438.891L325.905,438.549C326.024,438.133 326.155,437.526 326.256,437.375C326.448,436.87 326.725,436.427 327.004,435.998C327.605,435.176 328.325,434.53 329.048,433.992C330.521,432.951 332.019,432.342 333.307,432.004C335.905,431.31 337.595,431.701 337.563,431.844C337.558,432.061 335.949,432.019 333.586,432.894C332.412,433.318 331.061,433.979 329.778,434.962C329.154,435.468 328.547,436.05 328.061,436.74C327.842,437.098 327.621,437.459 327.476,437.856C327.353,438.134 327.412,438.013 327.393,438.063C327.385,438.082 327.394,438.082 327.4,438.082L327.408,438.084L327.604,438.088L328.092,438.103C328.418,438.05 328.744,438.055 329.063,437.953C329.707,437.825 330.319,437.547 330.903,437.276C332.07,436.703 333.085,435.962 333.973,435.267C335.738,433.849 337.003,432.563 337.769,431.881C337.891,431.995 338.013,432.109 338.114,432.204C337.504,432.575 337.257,432.656 337.176,432.615Z" style="fill:rgb(3,4,4);fill-rule:nonzero;"/>
        <path d="M318.463,425.363C318.529,425.496 317.162,426.14 314.901,425.775C313.79,425.595 312.483,425.186 311.182,424.407C310.537,424.011 309.899,423.516 309.315,422.908L308.898,422.423C308.825,422.344 308.771,422.247 308.706,422.159C308.635,422.053 308.604,422.023 308.486,421.823C308.277,421.5 308.104,421.141 307.919,420.79L307.642,420.259L308.226,420.146C308.621,420.074 309.012,419.992 309.406,419.944C309.717,419.905 309.857,419.889 310.09,419.872C310.511,419.849 310.926,419.832 311.333,419.85C312.146,419.874 312.93,419.964 313.66,420.131C315.125,420.439 316.383,421.02 317.308,421.689C318.235,422.36 318.83,423.094 319.13,423.65C319.428,424.209 319.5,424.555 319.427,424.591C319.232,424.709 318.598,423.478 316.804,422.475C315.92,421.973 314.768,421.54 313.428,421.323C312.761,421.202 312.048,421.146 311.311,421.141C310.941,421.133 310.567,421.155 310.188,421.18L309.671,421.236C309.663,421.237 309.666,421.237 309.666,421.237C309.668,421.239 309.66,421.231 309.666,421.243L309.773,421.404C309.825,421.477 309.865,421.557 309.928,421.623L310.268,422.035C310.749,422.557 311.283,423.007 311.836,423.384C312.952,424.125 314.104,424.587 315.096,424.863C317.1,425.423 318.419,425.151 318.463,425.363Z" style="fill:rgb(3,4,4);fill-rule:nonzero;"/>
        <path d="M320.104,430.374C320.076,430.353 320.08,430.293 320.114,430.199C320.133,430.151 320.154,430.099 320.198,430.027C320.209,430.015 320.205,430.013 320.228,429.992C320.25,429.978 320.235,429.977 320.291,429.953C320.338,429.904 320.522,430.021 320.498,430.084C320.503,430.131 320.499,430.108 320.499,430.124L320.492,430.165L320.461,430.257C320.444,430.297 320.427,430.339 320.409,430.384C320.24,430.74 320.044,431.163 319.596,431.794L319.643,431.736C319.349,432.203 318.993,432.746 318.584,433.352C318.159,433.943 317.613,434.541 317.052,435.211C316.36,435.887 315.619,436.414 314.728,436.924C314.286,437.175 313.808,437.4 313.27,437.571C312.74,437.735 312.118,437.879 311.39,437.678C310.807,437.507 310.298,437.021 310.101,436.5C309.807,435.9 310.004,435.201 310.245,434.791C310.761,433.934 311.423,433.46 312.037,433.015C313.286,432.159 314.486,431.605 315.504,431.168C317.546,430.316 318.886,430.017 318.947,430.183C319.014,430.357 317.803,430.962 315.912,432.007C314.976,432.535 313.849,433.166 312.752,433.996C312.219,434.405 311.657,434.899 311.38,435.408C311.255,435.668 311.217,435.844 311.307,435.984C311.41,436.225 311.56,436.336 311.767,436.414C312.042,436.502 312.475,436.454 312.888,436.32C313.305,436.195 313.723,436.013 314.119,435.801C314.904,435.389 315.678,434.872 316.23,434.391C316.796,433.787 317.362,433.259 317.821,432.736C318.264,432.201 318.668,431.727 319.023,431.324L319.145,431.34C319.042,431.235 319.079,431.272 319.074,431.265L319.078,431.263L319.094,431.247L319.131,431.211L319.207,431.129L319.357,430.963C319.455,430.853 319.548,430.75 319.633,430.654C319.807,430.464 319.955,430.302 320.077,430.169C320.157,430.144 320.105,429.926 320.414,430.237C320.357,430.273 320.311,430.303 320.271,430.328C320.187,430.378 320.13,430.396 320.104,430.374Z" style="fill:rgb(3,4,4);fill-rule:nonzero;"/>
        <path d="M296.147,416.971C296.165,416.883 296.402,416.858 296.848,416.906C297.271,417 297.903,417.205 298.536,417.67C299.854,418.553 301.102,420.274 302.444,421.976C303.123,422.819 303.813,423.569 304.507,424.075C305.302,424.56 306.033,425.005 306.638,425.398C307.905,426.126 308.654,426.66 308.578,426.825C308.502,426.99 307.611,426.754 306.228,426.235C305.543,425.936 304.733,425.559 303.843,425.093C302.925,424.516 302.14,423.696 301.419,422.804C300.002,421.001 298.959,419.331 297.948,418.394C296.978,417.408 296.107,417.18 296.147,416.971Z" style="fill:rgb(3,4,4);fill-rule:nonzero;"/>
        <path d="M302.176,421.535C301.991,421.483 302.137,420.602 302.46,419.287C302.604,418.632 302.799,417.85 302.799,417.048C302.808,416.647 302.752,416.251 302.604,415.911C302.575,415.821 302.531,415.739 302.478,415.665C302.433,415.595 302.364,415.473 302.379,415.503C302.368,415.494 302.367,415.495 302.368,415.496L302.352,415.519L302.346,415.525L302.289,415.679L302.173,415.985C302.082,416.184 302.021,416.39 301.989,416.603C301.953,416.813 301.88,417.013 301.869,417.219C301.78,418.039 301.811,418.809 301.931,419.442C302.146,420.717 302.536,421.478 302.359,421.594C302.244,421.688 301.529,421.071 301.028,419.678C300.908,419.33 300.788,418.942 300.739,418.509C300.646,418.08 300.656,417.609 300.659,417.112C300.657,416.864 300.722,416.611 300.756,416.352C300.785,416.089 300.848,415.827 300.951,415.566L301.09,415.17L301.163,414.968L301.354,414.662L301.74,414.044L301.937,413.731L302.035,413.574C302.054,413.56 302.063,413.497 302.09,413.521L302.163,413.58C302.564,413.888 302.95,414.203 303.272,414.564C303.479,414.752 303.519,414.871 303.605,415.013C303.691,415.149 303.759,415.29 303.805,415.438C304.027,416.018 304.058,416.598 304.012,417.102C303.93,418.124 303.609,418.921 303.347,419.574C302.78,420.863 302.343,421.581 302.176,421.535Z" style="fill:rgb(3,4,4);fill-rule:nonzero;"/>
        <path d="M299.818,423.208C299.928,423.408 298.756,424.011 296.802,424.253C295.824,424.385 294.652,424.471 293.329,424.39C292.665,424.34 291.966,424.262 291.216,424.025C290.844,423.903 290.443,423.743 290.048,423.388C289.857,423.198 289.66,422.942 289.588,422.612C289.496,422.286 289.56,421.964 289.643,421.704C289.737,421.452 289.846,421.242 290.034,421.037C290.121,420.936 290.21,420.834 290.302,420.743L290.617,420.545C290.831,420.397 291.044,420.341 291.256,420.279C291.473,420.202 291.673,420.183 291.872,420.162C292.671,420.079 293.382,420.168 294.036,420.29C295.348,420.536 296.452,420.919 297.365,421.267C299.184,421.986 300.227,422.555 300.178,422.717C300.121,422.903 298.93,422.633 297.083,422.155C296.158,421.927 295.056,421.65 293.849,421.49C293.249,421.406 292.612,421.365 292.033,421.443C291.888,421.461 291.739,421.478 291.624,421.529C291.497,421.567 291.364,421.602 291.286,421.673C291.24,421.702 291.192,421.729 291.142,421.755C291.111,421.795 291.086,421.835 291.054,421.87C290.984,421.924 290.924,422.044 290.889,422.135C290.852,422.321 290.839,422.293 290.954,422.439C291.09,422.568 291.348,422.709 291.631,422.803C292.2,423 292.837,423.105 293.439,423.18C294.656,423.319 295.787,423.334 296.73,423.323C298.639,423.317 299.747,423.083 299.818,423.208Z" style="fill:rgb(3,4,4);fill-rule:nonzero;"/>
        <path d="M290.793,437.844C290.747,437.766 290.934,437.592 291.348,437.335C291.764,437.109 292.414,436.881 293.207,436.71C294.776,436.319 297.056,436.205 299.072,435.304C300.069,434.804 300.931,434.108 301.74,433.438C302.567,432.769 303.353,432.143 304.154,431.8C304.521,431.584 304.929,431.525 305.252,431.432C305.576,431.325 305.876,431.342 306.114,431.35C306.592,431.366 306.84,431.422 306.842,431.512C306.844,431.604 306.602,431.724 306.193,431.856C305.988,431.923 305.737,431.974 305.477,432.134C305.215,432.282 304.897,432.373 304.602,432.618C303.972,433.002 303.313,433.642 302.543,434.35C301.771,435.073 300.841,435.892 299.653,436.487C298.43,437.082 297.218,437.239 296.149,437.398C295.083,437.517 294.129,437.57 293.349,437.632C292.561,437.682 291.945,437.758 291.52,437.818C291.108,437.905 290.838,437.922 290.793,437.844Z" style="fill:rgb(3,4,4);fill-rule:nonzero;"/>
        <path d="M296.985,436.199C296.839,436.325 296.242,435.813 295.254,435.13C294.28,434.478 292.793,433.597 291.177,433.829C290.884,433.88 291.021,433.858 290.993,433.858C290.99,433.857 290.979,433.854 290.978,433.858C290.974,433.861 290.969,433.867 290.979,433.884C291.042,433.952 291.167,434.147 291.308,434.243C291.822,434.742 292.464,435.085 292.981,435.388C294.052,435.965 294.759,436.34 294.694,436.52C294.637,436.682 293.851,436.632 292.611,436.243C292,436.024 291.253,435.758 290.516,435.164C290.313,435.025 290.176,434.873 289.964,434.619C289.701,434.314 289.51,433.938 289.304,433.559L289.147,433.272C289.124,433.226 289.089,433.174 289.075,433.131L289.227,433.073L289.838,432.842C290.23,432.699 290.81,432.54 290.991,432.524C292.095,432.369 293.147,432.634 293.951,433.041C294.769,433.441 295.388,433.95 295.851,434.414C296.771,435.354 297.115,436.092 296.985,436.199Z" style="fill:rgb(3,4,4);fill-rule:nonzero;"/>
        <path d="M302.225,434.689C302.392,434.656 302.721,435.513 302.688,436.94C302.664,437.652 302.588,438.509 302.229,439.452C302.046,439.92 301.777,440.425 301.302,440.861C301.049,441.083 300.773,441.251 300.377,441.361C300.135,441.379 299.89,441.397 299.644,441.415C299.399,441.4 299.154,441.364 298.908,441.339L298.724,441.318L298.73,441.147L298.747,440.806L298.781,440.129L298.799,439.795C298.808,439.701 298.825,439.655 298.838,439.583L298.922,439.193C299.021,438.673 299.208,438.205 299.372,437.76C299.731,436.881 300.158,436.154 300.55,435.574C301.343,434.419 301.976,433.829 302.118,433.925C302.277,434.031 301.917,434.811 301.364,436.028C301.092,436.639 300.777,437.362 300.514,438.176C300.397,438.585 300.251,439.011 300.186,439.459L300.123,439.796L300.095,439.952L300.094,439.982L300.088,440.086L300.089,440.089C300.172,440.051 300.347,439.987 300.463,439.88C300.718,439.662 300.944,439.333 301.113,438.974C301.455,438.252 301.629,437.48 301.761,436.843C302.021,435.551 302.034,434.719 302.225,434.689Z" style="fill:rgb(3,4,4);fill-rule:nonzero;"/>
        <path d="M275.178,422.107C275.263,421.922 276.296,422.091 278.125,421.99C278.575,421.961 279.113,422.004 279.69,422.051C279.981,422.048 280.269,422.195 280.572,422.27C280.877,422.359 281.19,422.455 281.476,422.633C282.708,423.215 283.66,424.377 284.543,425.357C285.439,426.351 286.396,427.064 287.437,427.414C288.484,427.779 289.553,427.912 290.463,428.098C290.914,428.187 291.333,428.296 291.691,428.397C292.051,428.531 292.357,428.633 292.595,428.761C293.064,429.044 293.284,429.232 293.24,429.313C293.197,429.392 292.897,429.36 292.427,429.245C292.186,429.199 291.877,429.177 291.539,429.118C291.185,429.09 290.782,429.058 290.338,429.021C289.445,428.955 288.325,428.928 287.066,428.571C285.784,428.228 284.531,427.326 283.573,426.251C282.609,425.174 281.853,424.213 280.899,423.702C280.68,423.54 280.433,423.453 280.192,423.365C279.948,423.29 279.737,423.139 279.484,423.124C278.996,423.047 278.543,422.953 278.079,422.921C276.244,422.788 275.096,422.26 275.178,422.107Z" style="fill:rgb(3,4,4);fill-rule:nonzero;"/>
        <path d="M279.947,423.009C279.757,423.028 279.551,422.351 279.077,421.364C278.609,420.411 277.823,419.004 276.533,418.382L276.292,418.284C276.24,418.254 276.066,418.228 276.114,418.232C276.127,418.231 276.119,418.227 276.112,418.222C276.104,418.217 276.102,418.221 276.094,418.227C276.089,418.226 276.087,418.236 276.091,418.263L276.113,418.461C276.202,419.04 276.535,419.551 276.854,419.977C277.548,420.811 278.053,421.375 277.922,421.52C277.809,421.644 277.148,421.386 276.188,420.629C275.733,420.229 275.165,419.632 274.927,418.719C274.902,418.596 274.877,418.512 274.857,418.351C274.828,418.187 274.828,418.006 274.846,417.813C274.856,417.622 274.866,417.43 274.877,417.235L274.895,416.94C274.902,416.896 274.889,416.829 274.914,416.805L275.061,416.813C275.453,416.842 275.854,416.85 276.274,416.935C276.523,416.975 276.569,416.986 276.716,417.037L277.08,417.183C278.041,417.628 278.679,418.378 279.12,419.068C279.558,419.773 279.808,420.464 279.955,421.051C280.242,422.234 280.118,422.997 279.947,423.009Z" style="fill:rgb(3,4,4);fill-rule:nonzero;"/>
        <path d="M283.934,426.947C284.079,427.085 283.29,428.041 281.712,429.155C280.917,429.709 279.942,430.332 278.696,430.819C278.063,431.036 277.375,431.289 276.455,431.164C276.005,431.103 275.439,430.803 275.168,430.316C274.885,429.84 274.849,429.379 274.844,428.938C274.83,428.724 274.872,428.487 274.951,428.242C274.985,428.124 275.019,428.004 275.062,427.891L275.251,427.585C275.316,427.485 275.381,427.384 275.452,427.291L275.701,427.063C275.865,426.903 276.039,426.776 276.223,426.688C276.944,426.274 277.669,426.136 278.335,426.064C279.673,425.928 280.841,426.072 281.799,426.267C283.727,426.649 284.776,427.424 284.663,427.577C284.566,427.727 283.516,427.324 281.665,427.189C280.753,427.119 279.646,427.087 278.498,427.269C277.351,427.421 276.128,427.965 276.162,428.954C276.16,429.229 276.203,429.509 276.292,429.641C276.371,429.778 276.473,429.844 276.688,429.895C277.13,429.979 277.754,429.843 278.296,429.672C279.409,429.307 280.401,428.794 281.221,428.363C282.87,427.483 283.815,426.832 283.934,426.947Z" style="fill:rgb(3,4,4);fill-rule:nonzero;"/>
        <path d="M295.723,417.037C295.612,417.032 295.554,416.794 295.312,416.413C295.075,416.032 294.694,415.495 294.146,414.888C293.6,414.286 292.892,413.597 292.031,413.008C291.607,412.72 291.124,412.443 290.674,412.352C290.45,412.295 290.249,412.303 290.114,412.35C290.027,412.348 290.001,412.438 289.926,412.454C289.867,412.5 289.775,412.6 289.745,412.664C289.663,412.811 289.653,412.886 289.695,413.043C289.741,413.198 289.875,413.398 290.042,413.583C290.384,413.958 290.838,414.29 291.281,414.583C292.178,415.168 293.07,415.622 293.815,416.005C295.317,416.762 296.271,417.221 296.215,417.397C296.161,417.567 295.094,417.419 293.454,416.864C292.636,416.579 291.672,416.202 290.645,415.617C290.134,415.318 289.602,414.98 289.099,414.465C288.854,414.201 288.6,413.894 288.446,413.446C288.28,413.005 288.349,412.386 288.616,411.984C288.744,411.767 288.877,411.621 289.059,411.464C289.264,411.332 289.462,411.15 289.695,411.106C290.163,410.955 290.608,410.999 290.973,411.095C291.72,411.287 292.259,411.659 292.742,412.022C293.698,412.768 294.381,413.581 294.882,414.315C295.38,415.052 295.677,415.728 295.79,416.229C295.911,416.736 295.795,417.051 295.723,417.037Z" style="fill:rgb(3,4,4);fill-rule:nonzero;"/>
        <path d="M289.917,438.55C290.042,438.628 289.446,439.812 287.675,440.879C286.795,441.392 285.642,441.848 284.291,442.032C283.617,442.121 282.896,442.158 282.139,442.067C281.76,442.026 281.371,441.948 280.971,441.813C280.576,441.662 280.146,441.509 279.748,441.022C279.547,440.79 279.418,440.368 279.478,440.022C279.501,439.829 279.563,439.694 279.635,439.546C279.722,439.402 279.828,439.24 279.942,439.114L280.323,438.928L280.581,438.809L281.092,438.597C281.767,438.331 282.426,438.13 283.06,437.959C284.326,437.62 285.495,437.429 286.494,437.368C287.49,437.304 288.318,437.383 288.872,437.542C289.43,437.698 289.683,437.939 289.646,438.004C289.602,438.103 289.315,438.039 288.797,438.05C288.279,438.056 287.53,438.118 286.606,438.293C285.685,438.464 284.59,438.739 283.402,439.124C282.811,439.317 282.191,439.533 281.577,439.794L281.119,439.995L280.896,440.104L280.795,440.155C280.794,440.159 280.795,440.151 280.795,440.163C280.791,440.179 280.772,440.208 280.782,440.2C280.794,440.209 280.757,440.176 280.799,440.226C280.863,440.325 281.133,440.483 281.404,440.575C281.684,440.674 281.992,440.746 282.304,440.787C282.927,440.878 283.56,440.872 284.155,440.825C285.352,440.725 286.408,440.408 287.25,440.049C288.937,439.305 289.761,438.407 289.917,438.55Z" style="fill:rgb(3,4,4);fill-rule:nonzero;"/>
        <path d="M351.564,425.225C351.603,425.407 351.337,425.622 350.936,425.884C350.542,426.146 349.971,426.47 349.574,426.867C349.384,427.067 349.29,427.232 349.246,427.399C349.19,427.566 349.21,427.775 349.25,427.979C349.331,428.39 349.467,428.719 349.314,428.85C349.198,428.955 348.822,428.889 348.426,428.414C348.236,428.18 348.027,427.807 348.034,427.309C348.027,426.813 348.285,426.292 348.629,425.948C349.332,425.265 350.096,425.074 350.634,425.002C351.181,424.943 351.529,425.051 351.564,425.225Z" style="fill:rgb(3,4,4);fill-rule:nonzero;"/>
        <path d="M357.314,425.85C357.111,425.88 356.95,425.572 356.651,425.239C356.373,424.897 355.938,424.534 355.41,424.386C355.15,424.32 354.93,424.34 354.828,424.374C354.727,424.395 354.65,424.479 354.571,424.65C354.474,425.02 354.502,425.405 354.314,425.475C354.232,425.512 354.125,425.471 353.996,425.346C353.856,425.229 353.729,425.006 353.639,424.667C353.583,424.328 353.65,423.736 354.152,423.365C354.631,423.01 355.232,422.982 355.741,423.109C356.783,423.396 357.363,424.239 357.495,424.844C357.573,425.15 357.568,425.399 357.516,425.573C357.473,425.746 357.404,425.838 357.314,425.85Z" style="fill:rgb(3,4,4);fill-rule:nonzero;"/>
        <path d="M343.314,430.225C343.22,430.355 342.752,430.274 342.175,429.767C341.616,429.282 341.031,428.121 341.34,426.884C341.64,425.668 342.479,424.901 343.115,424.552C343.772,424.198 344.246,424.195 344.314,424.35C344.396,424.524 344.09,424.825 343.692,425.284C343.298,425.743 342.813,426.401 342.624,427.183C342.438,427.961 342.648,428.661 342.909,429.191C343.183,429.712 343.435,430.067 343.314,430.225Z" style="fill:rgb(3,4,4);fill-rule:nonzero;"/>
        <path d="M365.689,431.725C365.458,431.432 366.763,430.17 367.078,428.201C367.234,427.237 367.058,426.409 366.778,425.831C366.502,425.253 366.198,424.888 366.314,424.725C366.397,424.592 366.931,424.679 367.537,425.289C367.829,425.597 368.114,426.042 368.278,426.593C368.435,427.142 368.479,427.776 368.38,428.41C368.167,429.682 367.496,430.652 366.899,431.187C366.292,431.729 365.787,431.862 365.689,431.725Z" style="fill:rgb(3,4,4);fill-rule:nonzero;"/>
        <path d="M363.064,435.975C363.212,436.07 363.154,436.484 362.831,437.046C362.502,437.592 361.909,438.324 360.895,438.757C360.388,438.965 359.815,439.03 359.321,438.935C358.815,438.855 358.437,438.595 358.166,438.376C357.653,437.883 357.567,437.455 357.689,437.35C357.835,437.217 358.186,437.41 358.665,437.588C359.158,437.755 359.726,437.811 360.398,437.535C361.765,436.93 362.75,435.738 363.064,435.975Z" style="fill:rgb(3,4,4);fill-rule:nonzero;"/>
        <path d="M351.064,438.975C351.133,439.134 350.795,439.438 350.107,439.72C349.416,439.938 348.317,440.051 347.221,439.589C346.133,439.108 345.442,438.233 345.146,437.563C344.89,436.86 344.902,436.401 345.064,436.35C345.245,436.287 345.547,436.608 345.934,437.063C346.367,437.495 346.951,438.021 347.739,438.376C348.539,438.71 349.335,438.76 349.95,438.801C350.552,438.78 350.993,438.8 351.064,438.975Z" style="fill:rgb(3,4,4);fill-rule:nonzero;"/>
        <path d="M349.189,418.225C349.091,418.393 348.692,418.326 348.122,418.34C347.553,418.347 346.774,418.45 346.017,418.785C345.258,419.127 344.758,419.623 344.496,420.087C344.229,420.547 344.138,420.957 343.939,420.975C343.786,420.999 343.505,420.586 343.608,419.803C343.662,419.417 343.853,418.972 344.174,418.564C344.503,418.169 344.954,417.82 345.477,417.582C346.529,417.115 347.607,417.164 348.295,417.425C348.997,417.685 349.28,418.086 349.189,418.225Z" style="fill:rgb(3,4,4);fill-rule:nonzero;"/>
        <path d="M362.689,418.475C362.326,418.455 362.049,417.532 361.338,416.777C360.989,416.402 360.664,416.193 360.357,416.072C360.054,415.948 359.759,415.903 359.689,415.725C359.624,415.575 359.82,415.265 360.376,415.141C360.651,415.08 361,415.106 361.353,415.229C361.697,415.361 362.033,415.589 362.306,415.883C362.849,416.477 363.051,417.177 363.051,417.678C363.051,418.188 362.863,418.481 362.689,418.475Z" style="fill:rgb(3,4,4);fill-rule:nonzero;"/>
        <path d="M332.189,430.059C332.233,430.231 331.473,430.67 330.128,431.308C329.45,431.61 328.545,431.939 327.463,431.953C327.191,431.975 326.921,431.942 326.645,431.904C326.359,431.872 326.089,431.831 325.827,431.767C325.555,431.707 325.283,431.636 324.975,431.524C324.884,431.485 324.834,431.479 324.709,431.41C324.595,431.343 324.462,431.292 324.362,431.211C324.153,431.055 323.972,430.872 323.899,430.639C323.724,430.161 323.966,429.659 324.394,429.339C324.755,429.033 325.001,428.938 325.264,428.802C325.524,428.695 325.781,428.592 326.032,428.49C326.29,428.412 326.543,428.337 326.79,428.263C327.79,428.01 328.735,427.979 329.509,428.06C331.079,428.272 331.852,428.933 331.773,429.059C331.687,429.251 330.831,428.946 329.468,428.991C328.786,429.035 327.983,429.149 327.127,429.43C326.916,429.507 326.699,429.586 326.479,429.667C326.266,429.764 326.049,429.862 325.828,429.963C325.627,430.066 325.386,430.214 325.338,430.254C325.339,430.256 325.341,430.256 325.341,430.256L325.34,430.257L325.34,430.258L325.449,430.301C325.648,430.377 325.892,430.452 326.13,430.512C326.376,430.58 326.614,430.625 326.83,430.658C327.052,430.702 327.27,430.744 327.482,430.738C328.334,430.79 329.128,430.61 329.816,430.429C331.199,430.031 332.144,429.877 332.189,430.059Z" style="fill:rgb(3,4,4);fill-rule:nonzero;"/>
        <path d="M272.898,437.807C272.872,437.722 273.801,437.398 275.5,437.009C277.166,436.586 279.704,436.067 281.512,433.52C281.768,433.223 282.06,432.916 282.346,432.605C282.672,432.307 283.019,432.016 283.416,431.771C284.205,431.279 285.144,430.973 286.107,430.842C288.05,430.578 290.046,430.926 292.047,431.041C293.063,431.129 293.979,430.995 294.997,430.762C295.497,430.632 296.001,430.488 296.507,430.306C297.022,430.144 297.447,429.937 297.938,429.68C298.894,429.179 299.913,428.491 301.249,428.247C302.535,428.061 303.743,428.185 304.949,428.331C307.351,428.657 309.619,429.199 311.768,429.41C312.837,429.396 313.901,429.492 314.911,429.311C315.923,429.138 316.898,428.873 317.827,428.51C318.755,428.14 319.646,427.729 320.505,427.28C320.934,427.057 321.357,426.837 321.773,426.619C322.222,426.41 322.662,426.205 323.095,426.003C324.886,425.282 326.727,425.114 328.332,425.295C329.94,425.482 331.351,425.913 332.486,426.482C333.688,426.977 334.492,427.818 335.139,428.345C335.791,428.906 336.349,429.231 336.754,429.417C337.166,429.558 337.402,429.633 337.398,429.682C337.397,429.723 337.15,429.74 336.674,429.671C336.21,429.559 335.549,429.27 334.827,428.752C334.083,428.251 333.324,427.546 332.19,427.157C331.085,426.678 329.737,426.34 328.252,426.224C326.767,426.115 325.113,426.32 323.513,427.013C323.12,427.208 322.722,427.406 322.316,427.607C321.898,427.838 321.474,428.071 321.042,428.308C320.18,428.781 319.254,429.23 318.274,429.639C317.29,430.043 316.225,430.352 315.112,430.554C313.992,430.766 312.841,430.682 311.673,430.698C309.353,430.486 307.092,429.949 304.781,429.639C303.635,429.493 302.478,429.396 301.468,429.54C300.501,429.7 299.556,430.286 298.54,430.822C298.039,431.084 297.454,431.354 296.917,431.516C296.385,431.7 295.84,431.851 295.293,431.985C294.217,432.233 293.011,432.367 291.97,432.253C289.87,432.091 287.962,431.731 286.244,431.926C285.392,432.021 284.607,432.258 283.938,432.645C283.602,432.836 283.304,433.072 283.017,433.313C282.742,433.595 282.473,433.854 282.209,434.138C281.686,434.701 281.179,435.299 280.563,435.735C280.259,435.956 279.972,436.184 279.653,436.324C279.348,436.489 279.049,436.639 278.743,436.743C277.539,437.208 276.461,437.375 275.598,437.513C273.866,437.748 272.925,437.896 272.898,437.807Z" style="fill:rgb(3,4,4);fill-rule:nonzero;"/>
        <path d="M273.273,437.434C273.273,437.523 273.041,437.63 272.642,437.74C272.233,437.83 271.68,438.055 270.875,438.175C270.494,438.276 270.007,438.237 269.497,438.225C268.979,438.157 268.493,437.98 267.993,437.753C267.498,437.514 266.992,437.225 266.52,436.745C266.293,436.489 266.051,436.197 265.937,435.74C265.817,435.269 265.986,434.722 266.269,434.378C266.408,434.24 266.556,434.074 266.703,433.979C266.859,433.886 266.973,433.774 267.198,433.686C267.568,433.537 267.917,433.487 268.251,433.479C268.918,433.469 269.486,433.629 269.999,433.811C271.025,434.182 271.823,434.707 272.443,435.206C273.063,435.708 273.489,436.209 273.721,436.602C273.955,436.998 273.973,437.278 273.898,437.308C273.736,437.376 273.192,436.689 271.911,435.972C271.287,435.612 270.508,435.217 269.624,434.966C268.743,434.704 267.735,434.624 267.289,435.212C267.221,435.329 267.208,435.362 267.216,435.45C267.233,435.548 267.336,435.712 267.465,435.864C267.746,436.176 268.15,436.45 268.542,436.669C268.938,436.884 269.347,437.07 269.705,437.151C270.085,437.184 270.427,437.285 270.799,437.245C271.508,437.257 272.15,437.164 272.593,437.229C273.039,437.273 273.273,437.342 273.273,437.434Z" style="fill:rgb(3,4,4);fill-rule:nonzero;"/>
        <path d="M275.648,437.183C275.871,437.207 275.789,438.132 275.284,439.389C275.032,440.024 274.693,440.764 274.203,441.547C273.954,441.938 273.678,442.341 273.302,442.736C273.118,442.934 272.898,443.129 272.619,443.308C272.351,443.473 271.929,443.672 271.404,443.543C270.889,443.4 270.615,443.03 270.449,442.745C270.255,442.366 270.211,441.933 270.292,441.6C270.446,440.93 270.775,440.495 271.086,440.129C271.718,439.392 272.383,438.91 272.953,438.522C274.097,437.765 274.945,437.516 275.023,437.683C275.102,437.844 274.474,438.352 273.532,439.253C273.071,439.702 272.505,440.24 272.039,440.882C271.798,441.192 271.607,441.562 271.563,441.829C271.533,441.967 271.574,442.029 271.591,442.1C271.67,442.232 271.748,442.277 271.731,442.266C271.681,442.323 272.116,442.129 272.382,441.83C272.679,441.543 272.95,441.197 273.198,440.863C273.696,440.189 274.105,439.528 274.449,438.975C275.146,437.853 275.503,437.172 275.648,437.183Z" style="fill:rgb(3,4,4);fill-rule:nonzero;"/>
        <path d="M374.396,425.686C374.315,425.663 374.474,425.142 375.207,424.723C375.914,424.3 377.027,423.982 378.369,423.686C379.703,423.375 381.318,423.1 382.897,422.454C383.674,422.122 384.425,421.669 384.917,421.021C385.159,420.694 385.323,420.318 385.423,419.908C385.473,419.703 385.502,419.488 385.509,419.265L385.52,419.129L385.519,419.118L385.518,419.099L385.249,419.045C385.01,418.986 384.77,418.978 384.531,418.947C384.056,418.876 383.585,418.892 383.124,418.885C382.201,418.916 381.325,419.094 380.515,419.348C378.893,419.881 377.575,420.775 376.561,421.63C374.533,423.365 373.534,424.774 373.357,424.641C373.24,424.566 373.951,422.967 375.933,420.941C376.926,419.945 378.302,418.873 380.115,418.2C381.02,417.878 382.019,417.648 383.069,417.594C383.592,417.59 384.13,417.569 384.664,417.643C384.932,417.673 385.206,417.686 385.471,417.747C385.889,417.829 386.309,417.912 386.731,417.994C386.823,417.984 386.79,418.078 386.8,418.135L386.807,418.325L386.82,418.705L386.834,419.083C386.84,419.217 386.826,419.247 386.823,419.334C386.812,419.628 386.771,419.92 386.699,420.211C386.557,420.788 386.301,421.344 385.943,421.805C385.212,422.725 384.242,423.234 383.351,423.581C381.537,424.24 379.886,424.406 378.534,424.604C377.179,424.78 376.109,424.949 375.426,425.187C374.734,425.411 374.486,425.736 374.396,425.686Z" style="fill:rgb(3,4,4);fill-rule:nonzero;"/>
        <path d="M372.871,432.615C372.789,432.656 372.543,432.576 371.933,432.204C372.034,432.109 372.156,431.995 372.279,431.881C373.044,432.563 374.309,433.849 376.074,435.267C376.962,435.962 377.977,436.703 379.144,437.276C379.728,437.547 380.34,437.825 380.983,437.953C381.303,438.055 381.629,438.05 381.955,438.104L382.442,438.088L382.639,438.084L382.646,438.082C382.653,438.082 382.662,438.082 382.654,438.063C382.635,438.013 382.694,438.134 382.571,437.856C382.426,437.459 382.205,437.098 381.986,436.74C381.5,436.05 380.893,435.468 380.269,434.962C378.986,433.979 377.635,433.318 376.461,432.893C374.098,432.019 372.489,432.062 372.484,431.844C372.451,431.701 374.142,431.31 376.74,432.004C378.028,432.342 379.525,432.951 380.999,433.991C381.722,434.53 382.441,435.176 383.043,435.998C383.322,436.427 383.599,436.87 383.791,437.375C383.892,437.526 384.022,438.133 384.142,438.549L384.232,438.891L384.278,439.063C384.32,439.137 384.188,439.103 384.151,439.128L383.438,439.267L382.889,439.373C382.688,439.416 382.649,439.391 382.522,439.402L381.888,439.416C381.479,439.356 381.061,439.341 380.684,439.22C379.9,439.047 379.215,438.718 378.568,438.394C377.288,437.713 376.257,436.877 375.375,436.092C373.631,434.494 372.508,433.043 371.921,432.191L372.267,431.868C372.661,432.25 372.952,432.575 372.871,432.615Z" style="fill:rgb(3,4,4);fill-rule:nonzero;"/>
        <path d="M391.584,425.361C391.628,425.151 392.946,425.423 394.951,424.863C395.943,424.588 397.095,424.125 398.211,423.384C398.764,423.007 399.298,422.557 399.779,422.035L400.119,421.623C400.182,421.557 400.222,421.477 400.273,421.404L400.381,421.243C400.387,421.231 400.379,421.239 400.381,421.237C400.381,421.237 400.384,421.237 400.376,421.236L399.858,421.18C399.479,421.155 399.105,421.133 398.736,421.141C397.999,421.146 397.286,421.202 396.619,421.323C395.279,421.54 394.127,421.973 393.243,422.475C391.449,423.478 390.814,424.709 390.62,424.591C390.548,424.555 390.619,424.209 390.918,423.65C391.217,423.094 391.812,422.36 392.739,421.689C393.664,421.02 394.922,420.439 396.387,420.131C397.117,419.964 397.9,419.874 398.714,419.85C399.121,419.832 399.536,419.849 399.957,419.872C400.189,419.889 400.33,419.905 400.641,419.944C401.035,419.992 401.426,420.074 401.821,420.146L402.405,420.259L402.128,420.79C401.942,421.141 401.77,421.5 401.561,421.823C401.442,422.023 401.412,422.053 401.341,422.159C401.276,422.247 401.222,422.344 401.148,422.423L400.731,422.908C400.147,423.516 399.51,424.011 398.865,424.407C397.563,425.186 396.257,425.595 395.146,425.775C392.885,426.14 391.518,425.495 391.584,425.361Z" style="fill:rgb(3,4,4);fill-rule:nonzero;"/>
        <path d="M389.943,430.374C389.916,430.396 389.859,430.379 389.775,430.328C389.736,430.304 389.688,430.273 389.633,430.238C389.941,429.926 389.89,430.144 389.971,430.168C390.092,430.302 390.24,430.464 390.414,430.654C390.5,430.75 390.592,430.853 390.689,430.963L390.84,431.129L390.916,431.211L390.953,431.247L390.969,431.263L390.973,431.265C390.968,431.272 391.005,431.235 390.902,431.34L391.023,431.324C391.379,431.727 391.783,432.201 392.226,432.736C392.685,433.259 393.251,433.787 393.816,434.391C394.369,434.872 395.143,435.389 395.928,435.801C396.324,436.013 396.742,436.195 397.159,436.32C397.572,436.454 398.005,436.502 398.28,436.414C398.487,436.336 398.637,436.225 398.74,435.984C398.83,435.844 398.792,435.668 398.667,435.408C398.39,434.899 397.828,434.405 397.295,433.996C396.198,433.166 395.071,432.535 394.135,432.007C392.244,430.962 391.033,430.357 391.1,430.183C391.161,430.017 392.501,430.316 394.543,431.168C395.561,431.605 396.761,432.158 398.01,433.015C398.624,433.46 399.286,433.934 399.802,434.791C400.043,435.201 400.24,435.9 399.946,436.5C399.749,437.021 399.24,437.507 398.657,437.678C397.929,437.879 397.307,437.735 396.777,437.571C396.239,437.4 395.761,437.175 395.319,436.924C394.428,436.414 393.687,435.887 392.995,435.211C392.434,434.541 391.888,433.943 391.463,433.352C391.054,432.746 390.698,432.203 390.404,431.736L390.451,431.794C390.003,431.163 389.807,430.74 389.639,430.384C389.62,430.339 389.603,430.297 389.587,430.257L389.555,430.165L389.548,430.124C389.549,430.108 389.545,430.13 389.55,430.084C389.525,430.021 389.709,429.904 389.756,429.954C389.812,429.977 389.797,429.978 389.819,429.992C389.841,430.014 389.838,430.016 389.848,430.027C389.893,430.099 389.913,430.151 389.932,430.199C389.967,430.294 389.97,430.353 389.943,430.374Z" style="fill:rgb(3,4,4);fill-rule:nonzero;"/>
        <path d="M413.899,416.973C413.94,417.181 413.069,417.408 412.099,418.394C411.088,419.331 410.045,421.001 408.628,422.804C407.907,423.696 407.122,424.516 406.204,425.093C405.313,425.559 404.504,425.936 403.819,426.235C402.436,426.754 401.545,426.99 401.469,426.825C401.393,426.66 402.142,426.126 403.409,425.397C404.014,425.005 404.745,424.56 405.54,424.075C406.234,423.568 406.924,422.819 407.603,421.976C408.945,420.274 410.193,418.553 411.511,417.67C412.144,417.205 412.776,417 413.199,416.906C413.645,416.859 413.882,416.883 413.899,416.973Z" style="fill:rgb(3,4,4);fill-rule:nonzero;"/>
        <path d="M407.871,421.535C407.703,421.581 407.267,420.863 406.7,419.574C406.438,418.921 406.117,418.124 406.035,417.102C405.989,416.598 406.02,416.018 406.242,415.438C406.288,415.29 406.355,415.149 406.441,415.013C406.528,414.871 406.567,414.752 406.774,414.564C407.097,414.203 407.482,413.888 407.884,413.58L407.957,413.521C407.983,413.497 407.993,413.56 408.012,413.574L408.11,413.731L408.307,414.044L408.693,414.662L408.884,414.968L408.957,415.17L409.096,415.566C409.199,415.827 409.262,416.089 409.291,416.352C409.325,416.611 409.39,416.864 409.388,417.112C409.391,417.609 409.4,418.08 409.308,418.509C409.259,418.942 409.139,419.33 409.019,419.678C408.518,421.071 407.803,421.688 407.688,421.594C407.511,421.478 407.9,420.717 408.116,419.442C408.236,418.809 408.267,418.039 408.178,417.219C408.167,417.013 408.094,416.813 408.058,416.603C408.025,416.39 407.965,416.184 407.874,415.985L407.758,415.679L407.701,415.525L407.695,415.519L407.679,415.496C407.68,415.495 407.679,415.494 407.668,415.503C407.683,415.473 407.614,415.595 407.569,415.665C407.516,415.739 407.472,415.821 407.444,415.912C407.295,416.251 407.239,416.647 407.248,417.048C407.248,417.85 407.444,418.632 407.587,419.287C407.91,420.602 408.055,421.484 407.871,421.535Z" style="fill:rgb(3,4,4);fill-rule:nonzero;"/>
        <path d="M410.229,423.208C410.3,423.083 411.408,423.317 413.316,423.323C414.26,423.334 415.391,423.319 416.607,423.18C417.21,423.105 417.847,423 418.416,422.803C418.699,422.709 418.957,422.568 419.093,422.439C419.208,422.293 419.195,422.321 419.158,422.135C419.123,422.044 419.063,421.924 418.993,421.87C418.961,421.835 418.936,421.795 418.905,421.755C418.854,421.729 418.807,421.702 418.761,421.673C418.683,421.602 418.55,421.567 418.423,421.529C418.308,421.478 418.159,421.461 418.014,421.443C417.435,421.365 416.798,421.406 416.198,421.489C414.991,421.65 413.889,421.927 412.964,422.155C411.117,422.633 409.926,422.904 409.869,422.717C409.821,422.556 410.863,421.986 412.682,421.267C413.595,420.918 414.699,420.536 416.011,420.289C416.665,420.168 417.376,420.079 418.175,420.162C418.374,420.183 418.574,420.202 418.791,420.279C419.003,420.341 419.216,420.397 419.43,420.545L419.745,420.743C419.837,420.834 419.926,420.936 420.013,421.037C420.201,421.242 420.31,421.452 420.404,421.704C420.487,421.964 420.551,422.286 420.459,422.612C420.387,422.942 420.189,423.198 419.999,423.388C419.604,423.743 419.203,423.903 418.831,424.025C418.081,424.262 417.382,424.34 416.718,424.39C415.395,424.471 414.223,424.385 413.245,424.253C411.291,424.011 410.119,423.407 410.229,423.208Z" style="fill:rgb(3,4,4);fill-rule:nonzero;"/>
        <path d="M419.254,437.844C419.208,437.922 418.938,437.905 418.527,437.819C418.102,437.758 417.486,437.682 416.698,437.632C415.918,437.57 414.964,437.517 413.897,437.398C412.829,437.239 411.617,437.082 410.394,436.487C409.206,435.892 408.275,435.073 407.504,434.35C406.734,433.642 406.075,433.002 405.445,432.618C405.149,432.373 404.832,432.282 404.57,432.134C404.31,431.974 404.059,431.923 403.854,431.856C403.445,431.724 403.203,431.604 403.205,431.514C403.207,431.422 403.455,431.366 403.933,431.35C404.171,431.342 404.471,431.325 404.795,431.432C405.118,431.525 405.525,431.584 405.893,431.8C406.694,432.143 407.479,432.769 408.307,433.438C409.116,434.108 409.978,434.804 410.975,435.304C412.991,436.205 415.271,436.318 416.84,436.71C417.633,436.881 418.283,437.109 418.698,437.335C419.113,437.592 419.299,437.766 419.254,437.844Z" style="fill:rgb(3,4,4);fill-rule:nonzero;"/>
        <path d="M413.062,436.199C412.932,436.092 413.275,435.354 414.196,434.414C414.659,433.95 415.278,433.441 416.096,433.041C416.899,432.634 417.952,432.369 419.056,432.524C419.237,432.54 419.816,432.699 420.209,432.842L420.82,433.073L420.972,433.131C420.958,433.174 420.923,433.226 420.899,433.272L420.743,433.559C420.537,433.938 420.346,434.314 420.083,434.619C419.871,434.873 419.734,435.025 419.531,435.164C418.794,435.758 418.047,436.024 417.436,436.243C416.196,436.632 415.41,436.682 415.353,436.52C415.288,436.34 415.995,435.965 417.065,435.388C417.583,435.085 418.225,434.742 418.739,434.243C418.879,434.147 419.005,433.952 419.067,433.884C419.078,433.867 419.073,433.861 419.069,433.858C419.067,433.854 419.057,433.857 419.054,433.858C419.025,433.858 419.163,433.88 418.87,433.829C417.254,433.597 415.767,434.478 414.793,435.13C413.805,435.813 413.207,436.325 413.062,436.199Z" style="fill:rgb(3,4,4);fill-rule:nonzero;"/>
        <path d="M407.822,434.689C408.013,434.719 408.025,435.551 408.286,436.843C408.418,437.48 408.592,438.252 408.934,438.974C409.103,439.333 409.329,439.662 409.584,439.88C409.7,439.987 409.875,440.051 409.958,440.089L409.959,440.086L409.953,439.982L409.952,439.952L409.924,439.796L409.861,439.459C409.796,439.011 409.649,438.585 409.533,438.176C409.27,437.362 408.955,436.639 408.684,436.028C408.13,434.811 407.77,434.031 407.929,433.925C408.071,433.829 408.704,434.419 409.497,435.574C409.889,436.153 410.315,436.881 410.675,437.76C410.839,438.205 411.026,438.673 411.125,439.193L411.209,439.583C411.222,439.655 411.239,439.701 411.248,439.795L411.266,440.129L411.3,440.806L411.316,441.147L411.323,441.318L411.139,441.339C410.893,441.364 410.647,441.4 410.403,441.415C410.157,441.397 409.912,441.379 409.67,441.361C409.273,441.251 408.998,441.083 408.745,440.861C408.27,440.425 408.001,439.92 407.817,439.453C407.459,438.509 407.383,437.652 407.359,436.94C407.326,435.513 407.655,434.656 407.822,434.689Z" style="fill:rgb(3,4,4);fill-rule:nonzero;"/>
        <path d="M434.869,422.107C434.951,422.261 433.803,422.788 431.968,422.921C431.504,422.953 431.051,423.047 430.563,423.124C430.309,423.139 430.099,423.29 429.854,423.365C429.614,423.453 429.367,423.54 429.147,423.702C428.194,424.213 427.438,425.174 426.474,426.251C425.516,427.326 424.263,428.228 422.98,428.571C421.722,428.928 420.602,428.955 419.709,429.021C419.265,429.058 418.862,429.09 418.508,429.118C418.17,429.177 417.861,429.199 417.62,429.246C417.15,429.361 416.851,429.393 416.807,429.313C416.764,429.233 416.983,429.044 417.452,428.761C417.689,428.633 417.996,428.531 418.355,428.397C418.714,428.296 419.133,428.187 419.584,428.098C420.494,427.912 421.563,427.779 422.61,427.414C423.65,427.064 424.607,426.351 425.504,425.357C426.387,424.377 427.339,423.215 428.571,422.633C428.856,422.454 429.17,422.359 429.475,422.27C429.778,422.195 430.065,422.048 430.356,422.051C430.934,422.004 431.472,421.961 431.922,421.99C433.751,422.091 434.784,421.922 434.869,422.107Z" style="fill:rgb(3,4,4);fill-rule:nonzero;"/>
        <path d="M430.1,423.009C429.929,422.997 429.805,422.234 430.092,421.051C430.239,420.464 430.489,419.773 430.927,419.069C431.368,418.378 432.006,417.628 432.967,417.183L433.331,417.037C433.478,416.986 433.523,416.975 433.772,416.935C434.192,416.85 434.594,416.842 434.986,416.813L435.133,416.805C435.158,416.829 435.145,416.896 435.152,416.94L435.17,417.236C435.181,417.43 435.19,417.622 435.201,417.813C435.219,418.006 435.219,418.187 435.189,418.351C435.17,418.512 435.145,418.596 435.12,418.719C434.882,419.632 434.313,420.229 433.858,420.629C432.898,421.386 432.238,421.644 432.125,421.52C431.994,421.376 432.499,420.811 433.192,419.977C433.512,419.551 433.845,419.04 433.934,418.461L433.956,418.263C433.96,418.236 433.958,418.226 433.953,418.227C433.945,418.221 433.942,418.217 433.935,418.222C433.928,418.227 433.92,418.231 433.933,418.232C433.98,418.228 433.807,418.254 433.755,418.284L433.514,418.382C432.224,419.004 431.438,420.411 430.97,421.364C430.496,422.351 430.29,423.028 430.1,423.009Z" style="fill:rgb(3,4,4);fill-rule:nonzero;"/>
        <path d="M426.113,426.947C426.231,426.832 427.177,427.483 428.826,428.363C429.646,428.794 430.638,429.307 431.751,429.673C432.293,429.843 432.917,429.98 433.358,429.895C433.574,429.844 433.676,429.778 433.755,429.641C433.844,429.509 433.887,429.229 433.885,428.954C433.919,427.965 432.696,427.421 431.549,427.269C430.4,427.087 429.294,427.119 428.382,427.189C426.531,427.324 425.48,427.728 425.384,427.577C425.271,427.424 426.32,426.649 428.248,426.267C429.206,426.072 430.374,425.928 431.712,426.064C432.378,426.136 433.103,426.274 433.824,426.688C434.008,426.775 434.182,426.903 434.346,427.063L434.595,427.291C434.666,427.384 434.73,427.485 434.796,427.585L434.985,427.891C435.028,428.004 435.062,428.124 435.096,428.242C435.175,428.487 435.217,428.724 435.203,428.938C435.198,429.379 435.162,429.84 434.879,430.316C434.607,430.803 434.042,431.103 433.592,431.164C432.672,431.289 431.984,431.036 431.351,430.819C430.104,430.333 429.13,429.709 428.335,429.156C426.757,428.041 425.968,427.085 426.113,426.947Z" style="fill:rgb(3,4,4);fill-rule:nonzero;"/>
        <path d="M414.324,417.037C414.251,417.051 414.135,416.735 414.256,416.229C414.37,415.728 414.667,415.052 415.165,414.315C415.666,413.581 416.349,412.768 417.305,412.022C417.789,411.659 418.327,411.287 419.074,411.095C419.438,410.999 419.884,410.955 420.352,411.106C420.585,411.15 420.783,411.332 420.988,411.464C421.17,411.621 421.303,411.767 421.431,411.984C421.698,412.386 421.767,413.005 421.601,413.446C421.447,413.894 421.193,414.201 420.948,414.465C420.445,414.98 419.913,415.318 419.402,415.617C418.375,416.202 417.411,416.579 416.593,416.864C414.953,417.419 413.886,417.567 413.832,417.397C413.775,417.221 414.729,416.762 416.231,416.005C416.977,415.622 417.869,415.168 418.766,414.582C419.209,414.29 419.663,413.958 420.005,413.583C420.172,413.398 420.306,413.198 420.352,413.043C420.394,412.886 420.384,412.811 420.302,412.664C420.271,412.6 420.18,412.5 420.121,412.454C420.046,412.438 420.02,412.348 419.933,412.35C419.798,412.303 419.597,412.295 419.373,412.352C418.923,412.443 418.439,412.72 418.016,413.008C417.155,413.597 416.447,414.286 415.901,414.888C415.353,415.495 414.972,416.032 414.735,416.413C414.493,416.794 414.435,417.032 414.324,417.037Z" style="fill:rgb(3,4,4);fill-rule:nonzero;"/>
        <path d="M420.13,438.55C420.286,438.407 421.11,439.305 422.797,440.049C423.639,440.408 424.695,440.726 425.892,440.825C426.487,440.872 427.12,440.878 427.743,440.787C428.055,440.746 428.363,440.674 428.643,440.575C428.914,440.483 429.184,440.325 429.248,440.226C429.29,440.176 429.253,440.209 429.265,440.2C429.274,440.208 429.256,440.179 429.252,440.163C429.252,440.151 429.253,440.159 429.252,440.155L429.15,440.104L428.928,439.995L428.47,439.794C427.855,439.533 427.236,439.317 426.645,439.124C425.457,438.739 424.362,438.464 423.44,438.293C422.517,438.118 421.768,438.056 421.25,438.05C420.731,438.04 420.445,438.103 420.4,438.004C420.364,437.94 420.617,437.698 421.176,437.543C421.729,437.383 422.557,437.304 423.553,437.368C424.552,437.429 425.721,437.62 426.987,437.959C427.621,438.13 428.28,438.331 428.955,438.597L429.466,438.809L429.724,438.928L430.104,439.114C430.219,439.24 430.325,439.402 430.412,439.546C430.484,439.694 430.546,439.829 430.569,440.022C430.629,440.368 430.5,440.79 430.299,441.022C429.901,441.509 429.471,441.662 429.076,441.813C428.676,441.948 428.287,442.026 427.908,442.067C427.15,442.158 426.43,442.121 425.756,442.032C424.405,441.848 423.252,441.392 422.372,440.879C420.601,439.812 420.005,438.628 420.13,438.55Z" style="fill:rgb(3,4,4);fill-rule:nonzero;"/>
        <path d="M377.857,430.059C377.904,429.877 378.848,430.031 380.23,430.429C380.919,430.61 381.713,430.79 382.564,430.738C382.777,430.744 382.995,430.702 383.217,430.658C383.433,430.625 383.671,430.58 383.917,430.512C384.155,430.452 384.398,430.377 384.598,430.302L384.707,430.258L384.707,430.257L384.706,430.256C384.706,430.256 384.708,430.256 384.709,430.254C384.661,430.214 384.42,430.066 384.22,429.963C383.998,429.862 383.781,429.764 383.568,429.667C383.348,429.586 383.131,429.507 382.92,429.43C382.063,429.149 381.261,429.035 380.579,428.991C379.216,428.946 378.36,429.251 378.273,429.059C378.195,428.933 378.968,428.273 380.538,428.06C381.313,427.979 382.257,428.01 383.257,428.263C383.504,428.337 383.757,428.412 384.015,428.49C384.266,428.592 384.522,428.695 384.783,428.802C385.046,428.938 385.292,429.033 385.653,429.339C386.081,429.659 386.323,430.161 386.147,430.639C386.075,430.872 385.894,431.055 385.685,431.211C385.585,431.292 385.452,431.343 385.338,431.41C385.213,431.479 385.163,431.485 385.072,431.524C384.764,431.636 384.492,431.707 384.22,431.767C383.958,431.831 383.688,431.872 383.402,431.904C383.126,431.943 382.855,431.975 382.584,431.953C381.502,431.939 380.597,431.61 379.918,431.308C378.574,430.67 377.814,430.231 377.857,430.059Z" style="fill:rgb(3,4,4);fill-rule:nonzero;"/>
        <path d="M437.148,437.809C437.122,437.896 436.181,437.748 434.449,437.513C433.586,437.375 432.508,437.208 431.304,436.743C430.998,436.639 430.699,436.489 430.394,436.324C430.075,436.183 429.788,435.956 429.484,435.735C428.868,435.299 428.361,434.701 427.838,434.138C427.574,433.854 427.305,433.595 427.03,433.313C426.743,433.072 426.445,432.836 426.109,432.645C425.439,432.258 424.655,432.021 423.803,431.926C422.085,431.731 420.177,432.09 418.077,432.253C417.036,432.367 415.83,432.233 414.754,431.985C414.207,431.851 413.662,431.7 413.13,431.516C412.593,431.354 412.008,431.084 411.507,430.822C410.491,430.286 409.546,429.7 408.579,429.54C407.569,429.396 406.412,429.493 405.266,429.639C402.955,429.949 400.694,430.486 398.374,430.698C397.206,430.682 396.055,430.766 394.935,430.554C393.822,430.352 392.757,430.043 391.772,429.639C390.793,429.23 389.867,428.781 389.005,428.308C388.573,428.071 388.148,427.838 387.73,427.607C387.325,427.406 386.927,427.208 386.534,427.013C384.934,426.32 383.28,426.115 381.795,426.224C380.31,426.34 378.962,426.678 377.856,427.157C376.723,427.546 375.964,428.251 375.22,428.752C374.499,429.27 373.837,429.56 373.373,429.671C372.896,429.74 372.649,429.724 372.648,429.684C372.645,429.634 372.881,429.559 373.293,429.418C373.699,429.231 374.256,428.907 374.908,428.345C375.556,427.818 376.358,426.977 377.561,426.482C378.696,425.913 380.106,425.482 381.715,425.295C383.32,425.114 385.161,425.281 386.952,426.003C387.385,426.205 387.825,426.41 388.273,426.619C388.689,426.836 389.113,427.057 389.542,427.28C390.4,427.729 391.292,428.14 392.22,428.51C393.148,428.873 394.124,429.138 395.136,429.311C396.146,429.492 397.21,429.396 398.279,429.41C400.428,429.199 402.696,428.657 405.098,428.331C406.304,428.185 407.512,428.061 408.798,428.247C410.134,428.491 411.153,429.179 412.109,429.68C412.6,429.937 413.024,430.144 413.54,430.306C414.046,430.488 414.55,430.632 415.05,430.762C416.068,430.995 416.983,431.129 418,431.041C420.001,430.926 421.997,430.578 423.939,430.842C424.903,430.973 425.842,431.279 426.631,431.771C427.028,432.016 427.375,432.307 427.701,432.605C427.987,432.916 428.279,433.223 428.535,433.52C430.343,436.067 432.881,436.586 434.547,437.009C436.245,437.398 437.175,437.722 437.148,437.809Z" style="fill:rgb(3,4,4);fill-rule:nonzero;"/>
        <path d="M436.773,437.432C436.773,437.342 437.008,437.272 437.454,437.229C437.896,437.164 438.539,437.257 439.248,437.245C439.62,437.285 439.962,437.185 440.342,437.151C440.7,437.07 441.109,436.884 441.505,436.669C441.896,436.45 442.301,436.176 442.582,435.864C442.711,435.712 442.813,435.548 442.831,435.45C442.839,435.362 442.826,435.329 442.758,435.212C442.312,434.624 441.304,434.704 440.423,434.966C439.539,435.217 438.76,435.612 438.136,435.972C436.854,436.689 436.311,437.377 436.148,437.308C436.074,437.278 436.092,436.998 436.326,436.602C436.558,436.209 436.984,435.708 437.604,435.206C438.224,434.707 439.021,434.182 440.048,433.811C440.561,433.629 441.129,433.469 441.796,433.479C442.13,433.487 442.479,433.537 442.85,433.686C443.074,433.774 443.188,433.886 443.344,433.979C443.491,434.074 443.639,434.24 443.778,434.378C444.061,434.722 444.229,435.269 444.11,435.74C443.996,436.197 443.754,436.489 443.527,436.745C443.055,437.225 442.549,437.514 442.054,437.753C441.554,437.98 441.068,438.157 440.55,438.225C440.04,438.237 439.553,438.276 439.172,438.175C438.367,438.055 437.813,437.83 437.405,437.74C437.006,437.629 436.773,437.523 436.773,437.432Z" style="fill:rgb(3,4,4);fill-rule:nonzero;"/>
        <path d="M434.398,437.183C434.544,437.171 434.901,437.853 435.598,438.975C435.941,439.528 436.351,440.189 436.848,440.863C437.097,441.197 437.368,441.543 437.665,441.83C437.931,442.129 438.366,442.323 438.315,442.266C438.299,442.277 438.377,442.232 438.456,442.1C438.473,442.029 438.514,441.967 438.484,441.829C438.439,441.562 438.249,441.192 438.008,440.882C437.542,440.24 436.976,439.702 436.515,439.253C435.573,438.352 434.944,437.845 435.023,437.683C435.102,437.516 435.95,437.765 437.094,438.522C437.664,438.91 438.329,439.392 438.961,440.129C439.271,440.495 439.601,440.93 439.755,441.6C439.836,441.933 439.792,442.366 439.598,442.745C439.432,443.03 439.158,443.4 438.643,443.543C438.118,443.672 437.696,443.473 437.428,443.308C437.148,443.129 436.929,442.934 436.745,442.736C436.369,442.341 436.093,441.938 435.844,441.547C435.354,440.764 435.014,440.024 434.762,439.389C434.258,438.132 434.176,437.207 434.398,437.183Z" style="fill:rgb(3,4,4);fill-rule:nonzero;"/>
    </g>
</svg>
