<?xml version="1.0" encoding="UTF-8" standalone="no"?>
<!DOCTYPE svg PUBLIC "-//W3C//DTD SVG 1.1//EN" "http://www.w3.org/Graphics/SVG/1.1/DTD/svg11.dtd">
<svg width="100%" height="100%" viewBox="0 0 180 180" version="1.1" xmlns="http://www.w3.org/2000/svg" xmlns:xlink="http://www.w3.org/1999/xlink" xml:space="preserve" xmlns:serif="http://www.serif.com/" style="fill-rule:evenodd;clip-rule:evenodd;stroke-linejoin:round;stroke-miterlimit:2;">
    <g transform="matrix(0.862324,0,0,0.862324,13.051876,12.004754)">
        <path d="M8.294,106.19C8.071,105.993 7.742,105.798 7.253,105.633C5.232,104.951 4.311,105.28 2.054,103.903C-0.881,102.113 -1.581,100.124 -1.531,99.425C-1.474,98.613 0.269,100.742 0.832,101.218C0.993,101.355 2.771,102.677 4.61,102.977C5.874,103.184 7.775,103.144 9.296,103.904C9.831,102.988 10.515,102.162 11.394,101.497C13.291,100.062 15.603,99.609 18.574,99.305C18.254,95.552 18.229,91.748 18.517,87.921C17.802,86.898 15.701,85.36 13.624,83.784C12.264,85.036 9.476,86.804 5.253,85.719C4.815,85.607 4.355,85.455 3.952,84.763C3.494,83.977 8.749,85.174 11.351,82.003C10.256,81.096 9.357,80.239 8.943,79.531C8.723,79.155 8.541,78.736 8.39,78.285C8.071,78.228 7.156,78.061 6.544,77.909C4.146,77.311 1.976,73.731 2.082,72.956C2.181,72.227 4.81,75.334 7.85,75.644C7.422,71.851 7.964,67.212 7.198,64.89C7.173,64.815 7.108,64.745 7.12,64.667C7.18,64.235 7.175,63.914 7.347,63.833C7.518,63.751 7.89,64.046 8.149,64.179C8.164,64.186 8.574,64.953 8.866,66.124C9.95,70.475 9.826,76.627 11.976,78.273C13.573,79.495 16.671,80.952 19.122,82.583C19.469,80.295 19.93,78.004 20.509,75.717C21.718,70.937 23.409,66.41 25.522,62.168C22.221,60.883 21.37,59.684 21.023,59.196C20.706,58.748 20.561,58.34 20.292,57.155C20.136,57.128 19.957,57.102 19.746,57.083C17.603,56.889 16.076,56.941 9.264,52.679C8.999,52.513 8.672,52.419 8.472,52.179C8.302,51.974 7.945,51.922 8.218,51.422C8.346,51.188 8.709,51.158 8.975,51.169C9.259,51.182 15.426,53.884 18.568,53.654C18.82,53.635 19.149,53.589 19.529,53.545C19.215,51.865 19.101,50.666 18.996,48.55C18.956,47.738 18.949,47.742 18.955,47.672C19.078,46.186 18.761,44.895 19.313,44.714C19.935,44.508 20.128,46.524 20.485,47.45C20.518,47.534 21.049,49.899 21.677,51.666C22.279,53.357 23.712,56.473 23.928,56.947C23.968,56.936 24.006,56.934 24.036,56.95C25.052,57.468 26.481,57.763 27.825,57.934C31.514,51.703 36.155,46.174 41.531,41.467C40.649,39.922 39.866,37.492 41.749,35.258C42.81,33.999 44.469,33.247 45.561,32.787C46.219,28.58 46.211,27.099 46.025,26.502C46.015,26.469 45.985,26.439 45.991,26.405C46.045,26.112 45.934,25.668 46.202,25.537C46.699,25.294 46.763,25.762 47.023,25.914C47.168,25.999 47.33,26.754 47.346,26.83C47.555,27.805 47.599,29.458 47.586,31.056C49.377,28.958 50.215,26.774 51.563,23.435C51.652,23.215 51.667,22.947 51.831,22.777C52.016,22.585 52.367,22.359 52.545,22.418C52.723,22.477 52.867,22.868 52.902,23.131C52.907,23.173 52.268,25.689 52.212,25.911C51.62,28.241 50.634,31.621 48.171,34.477C47.125,35.69 43.532,36.722 44.556,38.611C44.6,38.692 44.648,38.772 44.701,38.851C52.146,33.068 60.793,28.751 70.136,26.172C69.453,24.949 68.136,23.168 70.265,21.272C71.289,20.36 70.914,17.585 70.309,16.651C70.272,16.593 70.143,15.938 70.27,15.796C70.398,15.655 70.808,15.769 71.073,15.802C71.4,15.843 73.356,19.122 72.385,21.76C72.022,22.744 71.446,23.026 71.52,23.348C71.606,23.722 72.491,24.477 73.018,25.437C76.066,24.723 79.18,24.191 82.344,23.851C82.464,23.71 82.582,23.557 82.696,23.391C82.803,23.235 84.041,21.275 84.083,21.246C84.377,21.043 84.669,20.64 85.016,20.722C85.408,20.816 85.18,21.423 85.167,21.778C85.166,21.797 84.795,23.057 84.623,23.64C85.554,23.568 86.49,23.512 87.429,23.473C89.914,23.369 89.991,25.517 89.991,25.517C90.005,26.414 89.266,27.324 87.968,27.5C87.362,27.582 83.742,27.816 78.564,29.12C78.524,29.201 78.472,29.29 78.405,29.39C76.74,31.849 80.762,34.244 80.778,34.275C80.9,34.511 81.113,34.864 81.029,35.031C80.944,35.199 80.532,35.242 80.269,35.282C80.25,35.285 75.492,33.809 75.408,29.999C72.665,30.837 69.63,31.961 66.462,33.471C65.181,38.689 67.038,38.765 67.569,39.015C68.018,39.227 68.407,39.455 68.74,39.696C69.252,39.598 70.121,39.457 70.786,39.484C74.173,39.619 74.554,40.699 74.846,41.378C75.385,41.925 75.444,42.021 76.024,41.861C76.127,41.833 77.247,41.523 77.312,41.548C77.561,41.644 77.942,41.805 77.98,41.99C78.018,42.174 77.725,42.463 77.539,42.653C77.471,42.722 77.44,42.65 76.384,43.018C75.6,43.291 74.974,43.373 73.844,42.29C73.418,41.882 73.727,41.271 71.874,41.132C71.288,41.088 70.617,41.109 70.028,41.148C70.715,42.564 70.1,44.159 68.639,45.502C68.606,45.533 68.582,45.589 68.536,45.594C68.136,45.635 68.058,45.837 67.736,45.596C67.336,45.297 67.712,45.064 67.735,44.8C67.736,44.79 68.124,44.376 68.442,43.732C69.688,41.205 66.545,41.22 65.268,40.414C63.665,39.404 63.126,37.449 63.074,35.215C58.042,38.001 52.825,41.805 48.024,47.003C47.118,47.983 46.252,48.986 45.426,50.009C49.056,49.507 52.024,49.203 54.671,52.151C56.177,53.829 66.576,57.135 68.872,55.679C69.092,55.54 69.717,54.853 70.844,54.269C71.452,53.954 71.806,53.821 72.651,53.1C72.703,53.056 72.737,52.973 72.805,52.964C73.205,52.907 73.302,52.7 73.602,52.965C74.029,53.342 73.641,53.501 73.6,53.764C73.599,53.767 72.958,54.491 72.316,54.955C71.192,55.766 71.116,55.676 70.104,56.758C68.792,58.16 65.151,58.221 61.468,57.657C61.571,58.672 61.819,60.575 62.543,62.192C63.481,64.285 63.88,64.112 66.194,68.819C67.532,69.282 67.985,69.723 68.635,69.919C69.427,70.158 76.188,71.506 75.013,72.018C75.011,72.019 73.845,72.089 71.473,71.654C68.611,71.129 68.535,71.511 66.93,70.781C65.396,70.083 65.196,70.325 64.906,69.799C64.569,69.188 64.256,68.64 63.964,68.144C63.024,68.898 61.758,70.009 62.587,73.051C62.869,74.085 63.311,75.627 63.037,75.83C62.685,76.091 58.26,69.366 62.087,66.834C62.141,66.798 62.444,66.588 62.897,66.403C60.99,63.408 60.23,62.777 59.474,58.957C59.377,58.47 59.256,57.686 59.189,57.23C56.159,56.563 53.436,55.557 52.387,54.64C49.895,52.462 48.674,53.896 41.965,55.121C41.88,55.137 41.795,55.146 41.714,55.15C38.737,59.778 36.481,64.716 34.939,69.806C37.955,70.664 40.728,72.525 42.658,72.896C43.106,72.982 43.102,72.895 43.513,72.701C48.944,70.128 49.66,71.326 54.935,72.151C55.021,72.164 55.119,72.147 55.195,72.19C55.658,72.453 56.053,72.37 56.065,72.794C56.076,73.169 55.514,73.257 55.186,73.392C54.678,73.602 50.382,73.564 48.918,74.107C46.817,74.886 45.859,76.695 43.932,77.371C40.558,78.555 35.434,76.506 33.274,76.85C32.227,82.943 32.157,89.145 33.05,95.198C36.973,90.265 43.707,92.55 47.011,92.571C49.482,92.587 49.199,91.696 50.3,90.558C52.978,87.793 60.468,85.195 62.558,87.252C62.578,87.271 62.613,87.284 62.615,87.311C62.644,87.713 62.946,87.874 62.621,88.114C62.253,88.385 62.091,88.131 61.827,88.118C61.826,88.118 61.287,87.533 59.152,88.091C56.539,88.774 52.698,90.964 51.853,92.833C50.422,96 46.786,95.809 43.364,95.8C43.013,96.89 42.735,98.534 44.087,99.747C46.354,101.781 51.502,102.254 54.621,105.495C54.659,105.534 54.727,105.562 54.733,105.616C54.783,106.015 55.024,106.133 54.736,106.417C54.302,106.844 54.201,106.466 53.94,106.418C53.657,106.365 53.298,105.265 48.805,103.989C45.188,102.963 39.644,102.121 40.261,95.958C38.693,96.195 37.385,96.777 36.667,98.187C36.07,99.358 35.983,100.402 35.95,100.447C35.564,100.961 35.339,101.654 34.788,101.984C34.784,101.987 34.665,102.006 34.488,102.034C36.605,109.721 40.347,116.99 45.687,123.273C47.5,120.833 49.059,120.646 49.471,120.496C50.719,120.04 51.281,119.717 51.585,119.281C52.008,118.673 51.557,117.02 52.651,115.817C53.291,115.112 53.841,117.786 53.843,117.947C53.889,121.205 52.76,121.941 50.048,123.86C49.967,123.917 49.55,124.544 49.257,125.393C49.087,125.886 48.964,126.335 48.875,126.714C50.605,128.429 52.47,130.052 54.468,131.567C58.189,134.388 62.161,136.656 66.282,138.38C65.53,137.004 64.493,135.445 62.947,133.629C58.912,128.888 62.54,125.705 64.214,123.425C65.373,121.847 65.343,121.644 66.332,120.294C66.37,120.2 66.396,120.139 66.398,120.137C66.463,120.076 66.527,120.012 66.59,119.946C66.596,119.938 66.602,119.93 66.608,119.922C69.455,116.147 71.332,113.246 72.379,110.158C72.145,109.927 71.845,109.68 71.466,109.467C69.438,108.328 68.031,107.864 67.002,104.871C66.408,103.142 66.176,100.425 67.357,99.235C67.386,99.206 67.406,99.155 67.447,99.151C67.85,99.109 67.977,98.846 68.252,99.143C68.551,99.466 68.268,99.67 68.258,99.934C68.256,99.995 68.134,100.151 68.111,100.216C67.536,101.843 69.182,105.367 70.589,105.901C71.795,106.358 72.527,106.56 73.175,106.826C73.21,106.586 73.241,106.343 73.268,106.097C74.068,98.775 75.706,90.738 76.575,91.469C77.353,92.122 76.381,99.532 76.595,106.931C76.755,112.468 74.039,118.166 72.251,121.532C72.241,121.693 72.205,121.865 72.142,122.056C74.8,121.075 78.564,118.815 79.829,117.118C80.005,116.883 80.187,116.613 80.37,116.326C80.369,116.315 80.368,116.307 80.368,116.302C80.2,114.531 80.78,112.798 80.455,111.379C80.426,111.254 79.761,108.657 79.76,108.646C79.7,107.937 78.973,106.931 79.75,106.511C80.376,106.173 80.645,107.621 81.025,108.222C81.06,108.278 81.969,110.442 82.051,110.636C82.35,111.349 82.489,112.02 82.561,112.661C82.665,112.526 82.745,112.453 82.795,112.464C82.813,112.397 82.833,112.406 83.097,111.659C83.414,110.762 84.027,109.741 86.057,108.898C86.936,108.533 87.942,108.506 90.113,108.337C90.113,108.337 90.904,108.126 90.843,108.756C90.782,109.385 90.961,109.261 90.426,109.435C89.058,109.882 87.152,109.813 85.733,111.299C84.855,112.219 85.604,112.806 84.534,114.162L84.542,114.168C82.914,118.071 83.019,119.391 79.093,122.879C78.52,123.388 73.002,128.291 69.028,127.832C68.838,128.168 68.663,128.474 68.512,128.749C74.105,133.519 77.671,141.003 77.469,140.517C77.682,140.822 77.956,141.269 78.171,141.803C83.447,142.678 88.797,142.748 94.026,142.033C90.969,138.313 91.595,133.651 92.166,131.003C92.206,130.818 92.192,130.61 92.289,130.447C92.562,129.987 92.458,129.495 92.977,129.638C93.565,129.8 93.362,130.237 93.48,130.569C93.661,131.081 92.973,138.225 98.564,140.117C99.362,140.387 100.162,140.539 100.878,140.623C110.051,138.083 118.556,133.01 125.256,125.504C124.046,124.846 122.875,124.235 121.779,123.738C121.454,123.873 121.231,123.919 121.17,123.917C120.305,123.895 119.894,129.482 112.822,128.843C111.508,128.724 109.722,128.357 108.517,128.277C108.405,128.269 108.279,128.313 108.18,128.26C107.826,128.07 107.585,128.164 107.558,127.762C107.515,127.102 107.869,127.325 108.06,127.138C108.291,126.913 112.459,126.693 114.157,126.062C115.88,125.422 116.107,124.431 116.378,123.256C116.014,123.523 115.539,123.849 114.904,124.208C103.595,130.607 93.575,117.706 91.645,112.953C91.618,112.886 91.555,112.822 91.567,112.752C91.639,112.352 91.649,112.075 91.817,111.99C91.984,111.904 92.332,112.126 92.572,112.239C92.572,112.239 93.117,113.091 94.541,114.438C95.934,115.754 100.831,119.891 105.517,120.216C104.899,119.333 104.64,118.359 105.189,117.179C106.035,115.361 108.59,114.373 109.41,111.869C109.984,110.119 108.916,109.105 108.903,109.022C108.856,108.732 108.706,108.275 108.844,108.143C108.982,108.01 109.437,108.179 109.73,108.228C109.841,108.247 113.289,111.031 109.371,116.401C109.011,116.894 108.614,117.32 108.333,117.762C108.226,117.93 108.164,118.054 108.128,118.144L108.142,118.138C108.179,118.163 108.918,118.623 109.776,119.175C110.329,118.812 110.858,118.346 111.354,117.762C111.969,117.037 114.438,112.989 122.72,114.001C125.685,114.363 129.016,115.265 131.948,116.073C135.646,109.371 137.608,102.012 137.9,94.641C135.253,94.603 134.464,94.27 132.308,95.765C127.231,99.285 125.888,103.421 120.096,100.226C119.546,99.922 118.852,99.487 118.85,99.484C118.72,99.251 118.446,99.064 118.596,98.726C118.704,98.483 119.087,98.485 119.352,98.474C119.706,98.46 122.723,100.179 124.47,98.834C126.703,97.117 129.217,91.111 134.184,89.729C135.612,89.331 136.379,89.304 137.799,88.998C137.403,83.782 136.172,78.644 134.13,73.814C132.136,75.058 131.118,76.374 130.969,76.543L130.95,76.536C130.951,76.542 130.943,76.548 130.92,76.552C130.886,76.559 130.863,76.554 130.814,76.541C129.888,82.917 130.677,84.144 129.217,86.851C128.92,87.401 126.58,91.51 120.049,92.915C116.394,93.701 111.898,93.443 109.817,92.863C108.732,92.95 107.555,93.237 106.74,94.003C105.474,95.192 106.791,100.549 103.438,102.093C102.975,102.307 95.279,103.265 93.57,103.677C93.525,103.688 93.481,103.723 93.436,103.712C93.052,103.614 92.772,103.624 92.691,103.454C92.573,103.208 92.853,102.94 92.956,102.691C93.045,102.478 100.075,100.995 102.666,100.36C104.772,98.921 102.524,94.424 105.224,91.893C105.649,91.495 106.115,91.173 106.601,90.913C105.136,89.634 104.012,88.194 103.878,87.906C103.795,87.728 103.577,86.878 103.65,86.709L103.639,86.723L103.655,86.695C103.403,86.632 100.423,84.914 99.159,86.026C98.538,86.572 98.016,87.76 97.085,88.581C97.049,88.613 97.024,88.668 96.977,88.673C96.711,88.701 96.489,88.922 96.175,88.677C95.912,88.472 96.153,88.147 96.173,87.882C96.173,87.882 96.376,87.632 96.581,87.231C97.453,85.526 97.634,82.663 102.849,83.34C105.605,83.698 106.243,84.236 107.059,85.953C107.658,86.404 109.546,87.775 110.716,88C110.906,88.037 113.334,87.864 115.844,87.134C115.288,86.877 115.223,86.744 115.106,86.567C114.733,86.006 114.832,85.193 114.864,83.592C114.885,82.551 114.916,82.396 113.973,81.948C113.478,81.714 108.322,79.565 105.737,79.653C105.28,79.669 104.818,79.78 104.444,79.481C104.425,79.466 104.392,79.458 104.39,79.434C104.335,78.755 107.21,77.737 114.096,79.652C117.368,80.562 117.314,81.85 117.603,84.65C118.48,84.855 119.259,85.028 119.944,85.173C120.07,85.07 120.19,84.964 120.304,84.853C120.734,84.437 120.984,84.075 121.184,83.787C121.356,83.539 121.429,83.395 121.458,83.307L121.255,83.267C121.199,83.028 120.082,77.247 120.39,74.709C120.811,71.239 123.342,66.617 127.662,62.905C125.812,60.579 123.717,58.405 121.383,56.425C119.931,56.702 119.042,56.843 118.819,57.323C117.946,59.203 119.616,62.409 116.244,63.398C115.899,63.499 115.247,63.648 115.242,63.648C114.827,63.613 114.254,64.061 114.015,63.411C113.871,63.021 114.543,62.766 114.853,62.488C115,62.355 116.408,61.99 116.481,61.294C116.668,59.502 114.654,56.003 118.25,53.949C117.286,53.231 115.565,52.031 113.217,50.735C112.752,53.342 111.595,55.87 109.305,58.006C108.774,59.438 107.713,62.38 107.35,63.993C107.275,64.324 108.025,67.95 106.558,70.023C105.723,71.204 104.401,71.679 102.653,72.711C102.542,72.777 102.449,72.887 102.322,72.91C101.927,72.979 101.806,73.2 101.525,72.909C101.083,72.452 101.478,72.371 101.527,72.109C101.596,71.742 103.862,69.162 103.583,68.387C103.555,68.309 102.782,66.562 102.508,66.295C101.947,65.749 101.476,63.964 101.141,62.286C99.301,62.906 97.404,63.558 95.397,64.722C91.797,66.809 91.028,69.012 90.72,73.696C90.668,74.488 90.733,74.495 90.659,74.707C90.525,75.093 90.56,75.256 90.154,75.324C89.403,75.449 89.685,75.038 89.537,74.817C89.533,74.812 89.178,73.429 88.99,72.548C88.091,68.33 88.427,65.126 91.256,61.592C88.449,59.784 84.477,57.328 83.047,58.911C83.001,58.962 82.986,59.511 82.243,59.218C81.628,58.974 82.059,58.715 81.994,58.455C81.959,58.317 82.288,57.811 82.322,57.759C84.527,54.366 92.703,56.893 95.753,57.247C96.661,56.515 97.669,55.754 98.785,54.957C102.9,52.018 102.357,50.538 101.689,48.992C101.272,48.028 100.59,46.878 99.865,45.767C99.174,45.625 98.467,45.499 97.748,45.389C84.82,43.414 90.205,26.137 89.991,25.517C89.996,25.387 90.704,5.692 106.354,7.795C108.999,8.151 112.51,8.937 116.601,10.363C122.724,8.135 124.628,8.496 127.909,8.666C130.804,8.817 133.033,9.003 134.776,9.159C134.879,9.166 134.983,9.175 135.085,9.187C138.641,9.509 140.076,9.682 141.068,9.088C141.918,8.579 142.213,8.091 143.424,7.342C145.037,6.344 147.577,5.274 148.065,5.071C148.178,4.995 148.34,4.889 148.544,4.766C149.276,4.071 150.163,3.191 151.379,1.971L151.342,2.04C153.397,-0.945 153.79,-1.028 156.986,-1.217C157.179,-1.228 157.382,-1.313 157.566,-1.252C157.818,-1.17 158.235,-1.076 158.229,-0.81C158.217,-0.304 157.987,-0.318 157.784,-0.146C157.518,0.079 155.321,0.3 154.673,1.379C154.252,2.08 154.263,2.365 153.97,3.06C155.921,2.998 158.101,3.573 160.129,5.538C160.581,5.975 160.976,6.43 161.328,6.895C161.873,7.242 163.268,8.357 163.737,8.374C164.509,8.403 168.627,6.982 171.772,8.524C171.775,8.526 171.999,8.642 172.002,8.649C172.112,8.893 172.15,9.164 172.259,9.408C172.369,9.652 171.762,9.596 171.505,9.661C171.415,9.684 169.488,8.612 165.365,10.221C164.565,10.534 163.966,10.659 163.447,10.652C164.233,12.365 164.913,13.977 166.129,15.16C167.499,16.495 168.149,15.523 168.261,15.513C168.525,15.488 168.924,15.381 169.056,15.515C169.188,15.649 169.092,16.052 169.052,16.316C169.052,16.317 168.765,16.653 168.379,16.882C165.063,18.845 161.248,11.627 160.539,10.647C155.845,4.156 152.093,8.003 150.684,9.097C150.616,9.15 150.352,9.31 149.981,9.536C149.778,9.729 149.588,9.844 149.393,9.898C148.266,10.599 146.73,11.603 146.137,12.315C145.297,13.325 144.459,14.06 143.567,14.6C144.325,15.01 144.998,15.3 145.568,15.43C150.703,16.606 153.698,15.394 153.765,15.409C154.024,15.464 154.371,15.442 154.52,15.661C154.78,16.044 154.381,16.179 154.265,16.42C154.23,16.491 150.861,18.921 145.039,19.299C142.2,19.483 137.681,17.931 132.94,16.406C132.553,16.429 132.155,16.455 131.744,16.483C131.19,16.522 130.621,16.566 130.06,16.611C133.231,18.456 136.524,20.647 139.864,23.238C142.873,25.572 145.742,28.16 148.436,30.971C148.906,30.927 149.482,31.012 150.406,30.997C153.744,30.945 156.52,30.193 157.389,29.192C158.253,28.196 158.305,22.833 164.569,21.883C164.665,21.869 164.766,21.81 164.856,21.844C165.236,21.988 165.497,22.071 165.544,22.253C165.591,22.435 165.306,22.733 165.136,22.936C165.01,23.087 162.156,23.741 161.404,26.675C160.848,28.844 161.778,31.06 158.487,33.7C156.943,34.939 154.923,35.828 153.214,36.424C154.314,37.797 155.374,39.211 156.392,40.664C159.303,41.407 161.509,41.932 163.339,42.236C163.768,41.174 163.882,39.844 163.678,38.417C163.668,38.344 163.624,38.269 163.643,38.198C163.765,37.744 163.836,37.63 164.022,37.571C164.208,37.512 164.516,37.643 164.757,37.846C164.783,37.868 165.613,39.672 165.685,41.498C165.696,41.776 165.698,42.093 165.675,42.439C166.047,42.14 167.333,40.959 171.427,40.238C175.186,39.576 175.573,40.3 176.166,41.413C176.664,42.348 177.226,43.877 177.323,44.145C177.386,44.318 177.505,44.48 177.511,44.664C177.529,45.207 177.376,45.44 177.197,45.531C177.018,45.622 176.72,45.43 176.436,45.21C176.342,45.137 175.261,41.913 173.731,42.403C171.309,43.179 169.885,44.359 169.337,44.97C169.485,45.622 169.818,46.744 170.551,47.678C172.311,49.916 175.253,49.867 176.562,51.172C176.593,51.203 176.647,51.225 176.652,51.268C176.681,51.535 176.79,51.938 176.659,52.072C176.528,52.207 176.13,52.091 175.867,52.078C175.79,52.074 175.781,51.849 174.554,51.561C172.632,51.109 169.304,50.851 167.239,46.945C166.12,47.519 164.531,47.844 161.001,48.031C165.973,56.984 169.401,67.05 170.703,77.748C172.743,77.512 175.551,77.767 179.348,82.057C180.693,80.772 182.172,79.845 182.29,79.996C182.556,80.333 181.52,81.638 180.598,83.551C182.99,86.457 183.442,86.841 186.83,87.412C187.119,87.461 187.423,87.455 187.699,87.556C188.258,87.76 189.287,87.663 189.315,88.317C189.335,88.795 188.2,88.75 187.619,88.886C187.616,88.887 186.087,88.961 185.21,88.951C184.995,88.948 184.787,88.94 184.587,88.927C185.729,90.58 186.934,92.43 186.901,92.754C186.846,93.292 185.423,92.063 185.016,91.47C184.465,90.666 183.849,89.636 182.542,88.55C180.206,87.797 178.863,86.093 176.311,84.326C173.114,82.113 172.022,82.741 171.174,83.13C171.554,90.274 170.979,97.655 169.285,105.138C171.553,104.999 173.283,105.349 174.069,105.833C176.948,107.606 176.825,113.632 181.004,116.004C182.038,116.591 183.137,116.581 184.377,118.126C185.523,119.553 185.782,119.23 187.357,120.157C189.053,121.157 190.146,122.794 189.893,123.03C189.534,123.364 188.043,122.094 185.763,121.491C184.185,121.073 184.001,121.156 182.528,119.951C181.306,118.951 180.231,119.79 177.287,117.921C177.092,117.798 176.903,117.668 176.718,117.532C176.357,118.154 175.776,118.772 174.757,119.578C174.506,119.777 174.928,120.735 174.969,120.828C175.566,122.183 177.567,124.46 177.61,124.854C177.672,125.427 170.591,120.931 173.094,117.922C174.279,116.498 174.313,116.314 174.296,115.204C173.048,113.718 172.115,112.175 171.401,111.275C170.773,110.484 169.031,111.742 167.127,112.882C164.492,120.796 160.717,128.026 156.049,134.442C157.076,135.534 158.111,137.115 158.419,139.367C158.433,139.469 158.898,141.308 160.756,141.052C162.558,140.803 167.002,139.752 169.04,143.069C170.707,142.191 172.897,141.501 172.998,141.661C173.157,141.909 171.53,142.703 170.985,144.077C170.63,144.97 170.394,145.402 170.289,145.692C171.043,146.838 172.436,148.126 175.008,148.368C175.612,148.425 176.872,148.652 176.919,149.237C176.968,149.839 170.712,151.994 166.491,146.275C165.928,145.512 165.959,145.207 165.123,145.392C165.108,145.395 165.093,145.399 165.078,145.402C166.648,149.859 163.672,153.364 163.182,155.169C163.181,155.172 163.177,155.175 163.171,155.18C163.177,155.221 163.015,156.176 162.832,156.244C162.648,156.312 162.326,156.172 162.071,155.589C161.349,153.94 164.268,149.961 161.914,146.6C159.361,147.57 156.137,148.333 153.312,145.635C151.601,144.001 151.015,141.934 150.6,141.125C145.48,146.744 139.607,151.556 133.203,155.441C133.408,156.425 134.088,157.707 135.164,158.412C135.257,158.473 141.238,161.806 139.134,165.605C139.023,166.215 138.788,167.069 138.762,167.206C138.522,168.471 142.108,169.791 142.161,170.396C142.197,170.807 140.08,170.343 139.963,170.301C137.836,169.533 137.115,168.555 136.938,167.648C135.369,168.613 133.42,169.373 132.956,169.061C132.187,168.544 136.003,166.638 136.836,165.046C136.995,164.741 137.874,163.588 134.215,162.053C134.206,162.049 130.905,161.13 129.045,157.795C124.634,160.118 120.009,162.018 115.235,163.462C113.665,164.67 112.579,165.13 112.362,165.472C111.74,166.453 111.327,168.495 111.272,168.767L111.248,168.774C111.834,169.278 112.971,169.632 114.98,170.651C116.185,171.263 118.96,172.405 118.577,175.327C118.365,176.95 117.072,178.576 115.22,179.964C115.157,180.147 115.101,180.335 115.054,180.526C114.786,181.612 114.863,182.814 116.255,183.51C119.262,185.014 122.809,186.173 122.75,186.659C122.683,187.217 118.895,186.091 115.751,184.519C114.02,183.653 113.655,182.264 113.837,180.895C111.112,182.546 107.64,183.696 104.583,183.807C100.048,183.972 96.191,184.997 95.585,184.843C94.294,184.516 99.734,182.223 104.333,181.406C108.67,180.636 112.817,177.437 113.896,175.53C112.428,175 111.127,174.638 110.002,174.247C107.958,178.147 104.689,176.248 101.944,176.698C101.101,176.836 100.532,177.278 100.293,176.664C100.097,176.161 100.966,175.619 101.513,175.365C103.929,174.24 106.201,174.745 106.641,173.532C106.754,173.22 106.821,172.862 106.859,172.51C106.409,172.058 106.037,171.504 105.746,170.797C105.193,169.456 105.159,167.563 105.456,165.738C94.614,167.525 83.272,167 72.125,163.795C71.12,164.825 68.459,167.501 66.037,169.502C65.747,169.959 65.502,170.707 65.918,171.636C66.324,172.541 66.867,172.821 69.363,173.303C71.183,173.655 73.233,173.983 75.125,174.418C75.254,174.401 75.391,174.381 75.534,174.355C78.181,173.87 77.954,173.338 79.148,172.606C80.774,171.611 81.61,172.226 83.862,172.196C83.954,172.195 84.726,171.998 84.747,172.705C84.769,173.478 81.229,173.332 80.602,173.58C79.657,173.954 79.586,174.643 78.352,175.377C80.928,176.404 82.406,177.954 81.008,180.631C80.687,181.244 80.651,180.23 80.529,179.994C80.458,179.855 80.971,177.585 78.837,176.983C75.535,176.053 67.816,177.857 64.327,176.037C62.804,175.242 61.675,173.838 61.112,172.209C59.716,172.551 57.552,172.95 54.872,173.026C53.137,173.554 50.705,174.563 50.708,176.091C50.713,178.848 54.793,185.12 43.929,185.922C43.709,185.939 42.273,186.392 42.216,185.482C42.137,184.226 49.144,184.115 49.191,181.37C49.231,179.029 46.211,175.983 48.943,172.649C40.472,171.371 35.727,167.734 32.399,172.47C31.42,173.865 31.642,174.182 29.882,175.195C28.29,176.111 28.905,178.082 27.865,179.432C27.638,179.728 26.473,180.452 26.345,180.189C26.217,179.927 27.017,178.945 27.097,177.857C27.415,173.482 28.939,174.173 29.764,172.784C30.246,171.972 30.758,170.366 32.134,169.06C28.997,165.985 23.269,166.134 21.985,164.689C20.773,163.325 24.287,164.865 27.065,164.975C29.537,165.072 31.242,164.929 34.481,167.618C35.525,167.234 36.826,167.012 38.462,167.057C42.015,167.156 46.477,168.381 51.539,168.193C56.079,168.024 59.172,166.777 60.273,166.344L60.267,166.332C61.734,165.011 63.321,163.225 64.881,161.31C54.69,157.227 45.799,151.073 38.593,143.495C38.506,143.516 38.416,143.539 38.322,143.563C33.359,144.842 33.428,145.093 32.625,145.191C32.594,145.194 31.638,145.274 30.951,145.417C30.283,145.556 30.251,145.671 30.106,145.597L30.078,145.583C30.075,145.596 30.065,145.613 30.049,145.636C29.584,146.266 29.864,151.791 29.415,152.916C29.222,153.397 28.882,153.669 28.82,153.718C28.595,153.898 27.143,154.963 26.996,155.07C26.858,155.171 26.729,155.265 26.601,155.353C27.507,157.819 30.274,159.726 29.106,161.76C28.525,162.772 28.274,159.882 26.755,158.706C26.101,158.199 25.18,157.622 24.401,156.179C23.249,156.317 21.495,156.269 18.379,156.035C11.188,155.496 9.466,154.947 9.168,153.206C8.949,151.926 10.821,154.215 19.363,153.507C23.097,153.198 23.519,153.052 23.862,152.934C24.312,152.779 24.321,152.667 25.581,151.422C25.27,147.194 24.457,145.041 25.864,142.761C27.188,140.616 29.867,139.927 31.327,139.552L31.32,139.53C31.898,139.239 32.376,138.97 34.04,138.235C26.664,128.862 21.614,117.806 19.472,106.039C14.856,105.603 13.767,105.666 12.39,108.824C10.976,112.065 10.975,115.132 9.926,116.773C7.635,120.356 0.316,117.506 -0.882,112.87C-1.432,110.744 1.652,115.347 4.189,116.061C6.991,116.851 7.224,115.058 7.258,114.795C7.423,113.528 7.172,109.67 8.294,106.19Z"/>
    </g>
</svg>
