<?xml version="1.0" encoding="UTF-8" standalone="no"?>
<!DOCTYPE svg PUBLIC "-//W3C//DTD SVG 1.1//EN" "http://www.w3.org/Graphics/SVG/1.1/DTD/svg11.dtd">
<svg width="100%" height="100%" viewBox="0 0 500 500" version="1.1" xmlns="http://www.w3.org/2000/svg" xmlns:xlink="http://www.w3.org/1999/xlink" xml:space="preserve" xmlns:serif="http://www.serif.com/" style="fill-rule:evenodd;clip-rule:evenodd;stroke-linejoin:round;stroke-miterlimit:2;">
    <g transform="matrix(14.506,0,0,14.506,-4903.2,-5937.16)">
        <path d="M364.602,422.462C369.518,416.39 361.711,412.92 356.795,416.679C356.506,408.004 347.189,410.975 348.564,417.725C339.439,412.35 336.314,423.975 343.314,425.6C343.314,425.6 338.576,427.089 338.287,429.691C337.998,433.45 342.416,434.381 344.439,433.225C340.564,441.6 348.986,445.018 355.059,437.788C357.373,444.729 368.939,441.85 364.814,432.725C367.707,432.436 370.385,433.161 371.831,430.27C373.566,425.932 369.229,421.016 364.602,422.462Z" style="fill:rgb(255,192,203);fill-rule:nonzero;"/>
    </g>
    <g transform="matrix(14.506,0,0,14.506,-4903.2,-5937.16)">
        <path d="M362.289,427.378C362.253,427.294 362.354,427.139 362.553,426.939C362.646,426.834 362.784,426.74 362.908,426.6C363.026,426.451 363.16,426.292 363.312,426.128C363.85,425.434 364.191,424.186 363.621,423.058C363.035,421.932 361.83,421.738 360.967,422.021C360.745,422.09 360.543,422.151 360.365,422.206C360.194,422.289 360.04,422.356 359.907,422.405C359.64,422.504 359.456,422.53 359.396,422.462C359.337,422.394 359.408,422.233 359.602,421.993C359.698,421.873 359.825,421.733 359.981,421.576C360.155,421.441 360.374,421.307 360.619,421.156C360.853,420.987 361.19,420.936 361.523,420.822C361.693,420.771 361.89,420.789 362.084,420.775C362.281,420.763 362.483,420.767 362.688,420.831C363.524,420.979 364.354,421.598 364.788,422.445C365.23,423.293 365.274,424.241 365.068,425.015C364.993,425.414 364.786,425.742 364.619,426.05C364.419,426.336 364.188,426.57 363.984,426.773C363.747,426.941 363.53,427.083 363.34,427.197C363.144,427.303 362.95,427.343 362.803,427.387C362.499,427.464 362.325,427.461 362.289,427.378Z" style="fill:rgb(3,4,4);fill-rule:nonzero;"/>
    </g>
    <g transform="matrix(14.506,0,0,14.506,-4903.2,-5937.16)">
        <path d="M359.396,422.462C359.308,422.441 359.249,422.25 359.217,421.937C359.2,421.779 359.191,421.592 359.189,421.379C359.156,421.174 359.119,420.941 359.079,420.686C359.066,420.425 358.909,420.207 358.844,419.942C358.688,419.738 358.576,419.485 358.342,419.354C357.932,419.036 357.279,418.935 356.567,419.08C355.857,419.218 355.186,419.557 354.667,419.966C354.118,420.351 353.741,420.829 353.423,421.236C352.85,422.093 352.673,422.778 352.457,422.751C352.367,422.74 352.317,422.558 352.31,422.214C352.275,421.864 352.391,421.381 352.604,420.793C352.867,420.235 353.256,419.574 353.892,419.031C354.5,418.464 355.324,417.984 356.31,417.787C357.274,417.58 358.403,417.749 359.129,418.429C359.519,418.738 359.689,419.172 359.859,419.537C359.925,419.923 360.052,420.286 360.007,420.599C359.984,420.912 359.97,421.195 359.925,421.432C359.854,421.663 359.787,421.858 359.724,422.015C359.597,422.327 359.484,422.482 359.396,422.462Z" style="fill:rgb(3,4,4);fill-rule:nonzero;"/>
    </g>
    <g transform="matrix(14.506,0,0,14.506,-4903.2,-5937.16)">
        <path d="M352.457,422.751C352.25,422.807 352.085,422.014 351.394,421.339C351.046,421.02 350.557,420.818 349.943,420.853C349.335,420.901 348.629,421.154 348.024,421.618C347.412,422.069 346.973,422.662 346.772,423.242C346.574,423.824 346.615,424.393 346.785,424.864C347.119,425.823 347.693,426.353 347.541,426.51C347.467,426.615 346.66,426.406 345.942,425.262C345.589,424.701 345.376,423.82 345.604,422.911C345.827,422.011 346.422,421.163 347.235,420.563C348.042,419.95 349.008,419.625 349.935,419.638C350.875,419.65 351.713,420.151 352.102,420.732C352.854,421.928 352.579,422.747 352.457,422.751Z" style="fill:rgb(3,4,4);fill-rule:nonzero;"/>
    </g>
    <g transform="matrix(14.506,0,0,14.506,-4903.2,-5937.16)">
        <path d="M357.084,433.739C357.168,433.775 357.188,433.924 357.147,434.177C357.125,434.303 357.094,434.456 357.035,434.629C356.957,434.794 356.857,434.982 356.737,435.188C356.601,435.384 356.408,435.589 356.182,435.784C355.926,435.957 355.638,436.138 355.277,436.208C354.569,436.38 353.775,436.195 353.14,435.835C351.854,435.094 351.192,433.982 350.852,433.17C350.523,432.332 350.559,431.757 350.722,431.715C350.908,431.662 351.185,432.099 351.664,432.713C352.146,433.31 352.851,434.159 353.781,434.683C354.72,435.219 355.483,435.063 356.039,434.571C356.167,434.446 356.292,434.335 356.411,434.236C356.516,434.124 356.604,434.021 356.691,433.941C356.862,433.782 357.001,433.704 357.084,433.739Z" style="fill:rgb(3,4,4);fill-rule:nonzero;"/>
    </g>
    <g transform="matrix(14.506,0,0,14.506,-4903.2,-5937.16)">
        <path d="M350.723,431.715C350.811,431.733 350.855,431.889 350.855,432.17C350.862,432.453 350.826,432.857 350.604,433.346C350.419,433.818 349.97,434.447 349.158,434.707C348.339,434.974 347.381,434.664 346.745,434.092C345.391,432.94 345.372,431.029 345.953,430.136C346.105,429.913 346.249,429.722 346.378,429.563C346.521,429.417 346.677,429.322 346.793,429.242C347.036,429.089 347.19,429.046 347.252,429.113C347.313,429.181 347.278,429.351 347.178,429.583C347.132,429.701 347.05,429.825 346.986,429.979C346.939,430.142 346.883,430.315 346.813,430.498C346.774,430.689 346.754,430.899 346.726,431.112C346.762,431.332 346.724,431.562 346.817,431.792C346.924,432.254 347.196,432.749 347.612,433.099C348.474,433.854 349.32,433.564 349.802,432.872C349.912,432.705 350.047,432.569 350.132,432.42C350.212,432.268 350.289,432.136 350.362,432.028C350.508,431.814 350.633,431.696 350.723,431.715Z" style="fill:rgb(3,4,4);fill-rule:nonzero;"/>
    </g>
    <g transform="matrix(14.506,0,0,14.506,-4903.2,-5937.16)">
        <path d="M358.24,427.089C358.357,426.994 358.868,427.297 359.23,428.167C359.566,429.005 359.604,430.524 358.515,431.685C357.984,432.255 357.169,432.558 356.476,432.49C355.778,432.44 355.246,432.128 354.904,431.826C354.737,431.666 354.59,431.521 354.478,431.385C354.38,431.234 354.305,431.103 354.25,430.989C354.142,430.764 354.121,430.617 354.191,430.559C354.261,430.501 354.414,430.534 354.621,430.635C354.724,430.685 354.841,430.752 354.967,430.834C355.1,430.896 355.25,430.968 355.415,431.047C356.064,431.359 356.927,431.442 357.572,430.763C358.223,430.075 358.379,429.079 358.325,428.388C358.262,427.684 358.071,427.206 358.24,427.089Z" style="fill:rgb(3,4,4);fill-rule:nonzero;"/>
    </g>
    <g transform="matrix(14.506,0,0,14.506,-4903.2,-5937.16)">
        <path d="M362,427.667C362.109,427.557 362.622,427.783 363.047,428.554C363.463,429.306 363.617,430.653 362.947,431.871C362.611,432.47 362.11,432.944 361.572,433.226C361.036,433.528 360.461,433.559 360.027,433.535C359.14,433.415 358.761,433.01 358.818,432.872C358.885,432.678 359.371,432.729 359.995,432.604C360.616,432.471 361.335,432.052 361.794,431.231C362.242,430.407 362.281,429.508 362.17,428.87C362.058,428.229 361.848,427.8 362,427.667Z" style="fill:rgb(3,4,4);fill-rule:nonzero;"/>
    </g>
    <g transform="matrix(14.506,0,0,14.506,-4903.2,-5937.16)">
        <path d="M351.564,425.225C351.603,425.407 351.337,425.622 350.936,425.884C350.542,426.146 349.971,426.47 349.574,426.867C349.384,427.067 349.29,427.232 349.246,427.399C349.19,427.566 349.21,427.775 349.25,427.979C349.331,428.39 349.467,428.719 349.314,428.85C349.198,428.955 348.822,428.889 348.426,428.414C348.236,428.18 348.027,427.807 348.034,427.309C348.027,426.813 348.285,426.292 348.629,425.948C349.332,425.265 350.096,425.074 350.634,425.002C351.181,424.943 351.529,425.051 351.564,425.225Z" style="fill:rgb(3,4,4);fill-rule:nonzero;"/>
    </g>
    <g transform="matrix(14.506,0,0,14.506,-4903.2,-5937.16)">
        <path d="M357.314,425.85C357.111,425.88 356.95,425.572 356.651,425.239C356.373,424.897 355.938,424.534 355.41,424.386C355.15,424.32 354.93,424.34 354.828,424.374C354.727,424.395 354.65,424.479 354.571,424.65C354.474,425.02 354.502,425.405 354.314,425.475C354.232,425.512 354.125,425.471 353.996,425.346C353.856,425.229 353.729,425.006 353.639,424.667C353.583,424.328 353.65,423.736 354.152,423.365C354.631,423.01 355.232,422.982 355.741,423.109C356.783,423.396 357.363,424.239 357.495,424.844C357.573,425.15 357.568,425.399 357.516,425.573C357.473,425.746 357.404,425.838 357.314,425.85Z" style="fill:rgb(3,4,4);fill-rule:nonzero;"/>
    </g>
    <g transform="matrix(14.506,0,0,14.506,-4903.2,-5937.16)">
        <path d="M343.314,430.225C343.22,430.355 342.752,430.274 342.175,429.767C341.616,429.282 341.031,428.121 341.34,426.884C341.64,425.668 342.479,424.901 343.115,424.552C343.772,424.198 344.246,424.195 344.314,424.35C344.396,424.524 344.09,424.825 343.692,425.284C343.298,425.743 342.813,426.401 342.624,427.183C342.438,427.961 342.648,428.661 342.909,429.191C343.183,429.712 343.435,430.067 343.314,430.225Z" style="fill:rgb(3,4,4);fill-rule:nonzero;"/>
    </g>
    <g transform="matrix(14.506,0,0,14.506,-4903.2,-5937.16)">
        <path d="M365.689,431.725C365.458,431.432 366.763,430.17 367.078,428.201C367.234,427.237 367.058,426.409 366.778,425.831C366.502,425.253 366.198,424.888 366.314,424.725C366.397,424.592 366.931,424.679 367.537,425.289C367.829,425.597 368.114,426.042 368.278,426.593C368.435,427.142 368.479,427.776 368.38,428.41C368.167,429.682 367.496,430.652 366.899,431.187C366.292,431.729 365.787,431.862 365.689,431.725Z" style="fill:rgb(3,4,4);fill-rule:nonzero;"/>
    </g>
    <g transform="matrix(14.506,0,0,14.506,-4903.2,-5937.16)">
        <path d="M363.064,435.975C363.212,436.07 363.154,436.484 362.831,437.046C362.502,437.592 361.909,438.324 360.895,438.757C360.388,438.965 359.815,439.03 359.321,438.935C358.815,438.855 358.437,438.595 358.166,438.376C357.653,437.883 357.567,437.455 357.689,437.35C357.835,437.217 358.186,437.41 358.665,437.588C359.158,437.755 359.726,437.811 360.398,437.535C361.765,436.93 362.75,435.738 363.064,435.975Z" style="fill:rgb(3,4,4);fill-rule:nonzero;"/>
    </g>
    <g transform="matrix(14.506,0,0,14.506,-4903.2,-5937.16)">
        <path d="M351.064,438.975C351.133,439.134 350.795,439.438 350.107,439.72C349.416,439.938 348.317,440.051 347.221,439.589C346.133,439.108 345.442,438.233 345.146,437.563C344.89,436.86 344.902,436.401 345.064,436.35C345.245,436.287 345.547,436.608 345.934,437.063C346.367,437.495 346.951,438.021 347.739,438.376C348.539,438.71 349.335,438.76 349.95,438.801C350.552,438.78 350.993,438.8 351.064,438.975Z" style="fill:rgb(3,4,4);fill-rule:nonzero;"/>
    </g>
    <g transform="matrix(14.506,0,0,14.506,-4903.2,-5937.16)">
        <path d="M349.189,418.225C349.091,418.393 348.692,418.326 348.122,418.34C347.553,418.347 346.774,418.45 346.017,418.785C345.258,419.127 344.758,419.623 344.496,420.087C344.229,420.547 344.138,420.957 343.939,420.975C343.786,420.999 343.505,420.586 343.608,419.803C343.662,419.417 343.853,418.972 344.174,418.564C344.503,418.169 344.954,417.82 345.477,417.582C346.529,417.115 347.607,417.164 348.295,417.425C348.997,417.685 349.28,418.086 349.189,418.225Z" style="fill:rgb(3,4,4);fill-rule:nonzero;"/>
    </g>
    <g transform="matrix(14.506,0,0,14.506,-4903.2,-5937.16)">
        <path d="M362.689,418.475C362.326,418.455 362.049,417.532 361.338,416.777C360.989,416.402 360.664,416.193 360.357,416.072C360.054,415.948 359.759,415.903 359.689,415.725C359.624,415.575 359.82,415.265 360.376,415.141C360.651,415.08 361,415.106 361.353,415.229C361.697,415.361 362.033,415.589 362.306,415.883C362.849,416.477 363.051,417.177 363.051,417.678C363.051,418.188 362.863,418.481 362.689,418.475Z" style="fill:rgb(3,4,4);fill-rule:nonzero;"/>
    </g>
</svg>
